<svg xml:space="preserve" width="700" height="692.203" xmlns="http://www.w3.org/2000/svg"><defs><radialGradient fx="0" fy="0" cx="0" cy="0" r="1" gradientUnits="userSpaceOnUse" gradientTransform="translate(89.28 47.233) scale(1.8171)" spreadMethod="pad" id="m"><stop style="stop-opacity:1;stop-color:#14686a" offset="0"/><stop style="stop-opacity:1;stop-color:#033235" offset="1"/></radialGradient><radialGradient fx="0" fy="0" cx="0" cy="0" r="1" gradientUnits="userSpaceOnUse" gradientTransform="translate(80.523 96.994) scale(149.99451)" spreadMethod="pad" id="a"><stop style="stop-opacity:1;stop-color:#338461" offset="0"/><stop style="stop-opacity:1;stop-color:#2a7b54" offset=".056"/><stop style="stop-opacity:1;stop-color:#176e42" offset=".168"/><stop style="stop-opacity:1;stop-color:#0e6a3b" offset=".233"/><stop style="stop-opacity:1;stop-color:#0e693b" offset=".24"/><stop style="stop-opacity:1;stop-color:#024122" offset=".543"/><stop style="stop-opacity:1;stop-color:#034323" offset=".694"/><stop style="stop-opacity:1;stop-color:#054726" offset=".786"/><stop style="stop-opacity:1;stop-color:#084e2b" offset=".862"/><stop style="stop-opacity:1;stop-color:#0b5932" offset=".929"/><stop style="stop-opacity:1;stop-color:#0e673a" offset=".991"/><stop style="stop-opacity:1;stop-color:#0e6a3b" offset="1"/></radialGradient><radialGradient fx="0" fy="0" cx="0" cy="0" r="1" gradientUnits="userSpaceOnUse" gradientTransform="matrix(26.8082 .03502 -.03502 26.8082 122.218 59.969)" spreadMethod="pad" id="D"><stop style="stop-opacity:1;stop-color:#ceebf0" offset="0"/><stop style="stop-opacity:1;stop-color:#c7e8e9" offset=".065"/><stop style="stop-opacity:1;stop-color:#b3dfd9" offset=".165"/><stop style="stop-opacity:1;stop-color:#93d2bf" offset=".287"/><stop style="stop-opacity:1;stop-color:#82ccb1" offset=".344"/><stop style="stop-opacity:1;stop-color:#68bea2" offset="1"/></radialGradient><radialGradient fx="0" fy="0" cx="0" cy="0" r="1" gradientUnits="userSpaceOnUse" gradientTransform="matrix(26.8082 .03502 -.03502 26.8082 122.218 59.969)" spreadMethod="pad" id="C"><stop style="stop-opacity:1;stop-color:#ceebf0" offset="0"/><stop style="stop-opacity:1;stop-color:#c7e8e9" offset=".065"/><stop style="stop-opacity:1;stop-color:#b3dfd9" offset=".165"/><stop style="stop-opacity:1;stop-color:#93d2bf" offset=".287"/><stop style="stop-opacity:1;stop-color:#82ccb1" offset=".344"/><stop style="stop-opacity:1;stop-color:#68bea2" offset="1"/></radialGradient><radialGradient fx="0" fy="0" cx="0" cy="0" r="1" gradientUnits="userSpaceOnUse" gradientTransform="matrix(26.8082 .03502 -.03502 26.8082 122.218 59.969)" spreadMethod="pad" id="B"><stop style="stop-opacity:1;stop-color:#ceebf0" offset="0"/><stop style="stop-opacity:1;stop-color:#c7e8e9" offset=".065"/><stop style="stop-opacity:1;stop-color:#b3dfd9" offset=".165"/><stop style="stop-opacity:1;stop-color:#93d2bf" offset=".287"/><stop style="stop-opacity:1;stop-color:#82ccb1" offset=".344"/><stop style="stop-opacity:1;stop-color:#68bea2" offset="1"/></radialGradient><radialGradient fx="0" fy="0" cx="0" cy="0" r="1" gradientUnits="userSpaceOnUse" gradientTransform="translate(123.557 56.79) scale(10.4928)" spreadMethod="pad" id="A"><stop style="stop-opacity:1;stop-color:#14686a" offset="0"/><stop style="stop-opacity:1;stop-color:#146769" offset=".289"/><stop style="stop-opacity:1;stop-color:#146264" offset=".475"/><stop style="stop-opacity:1;stop-color:#13595b" offset=".633"/><stop style="stop-opacity:1;stop-color:#104e50" offset=".774"/><stop style="stop-opacity:1;stop-color:#0a3f42" offset=".904"/><stop style="stop-opacity:1;stop-color:#033235" offset="1"/></radialGradient><radialGradient fx="0" fy="0" cx="0" cy="0" r="1" gradientUnits="userSpaceOnUse" gradientTransform="matrix(1.22417 0 0 1.22417 123.092 56.24)" spreadMethod="pad" id="z"><stop style="stop-opacity:1;stop-color:#14686a" offset="0"/><stop style="stop-opacity:1;stop-color:#033235" offset="1"/></radialGradient><radialGradient fx="0" fy="0" cx="0" cy="0" r="1" gradientUnits="userSpaceOnUse" gradientTransform="matrix(5.106 .4941 -.22915 2.36782 125.266 55.648)" spreadMethod="pad" id="y"><stop style="stop-opacity:1;stop-color:#14686a" offset="0"/><stop style="stop-opacity:1;stop-color:#033235" offset="1"/></radialGradient><radialGradient fx="0" fy="0" cx="0" cy="0" r="1" gradientUnits="userSpaceOnUse" gradientTransform="translate(121.868 54.01) scale(11.7676)" spreadMethod="pad" id="x"><stop style="stop-opacity:1;stop-color:#14686a" offset="0"/><stop style="stop-opacity:1;stop-color:#146668" offset=".199"/><stop style="stop-opacity:1;stop-color:#145f61" offset=".4"/><stop style="stop-opacity:1;stop-color:#115455" offset=".603"/><stop style="stop-opacity:1;stop-color:#0c4446" offset=".805"/><stop style="stop-opacity:1;stop-color:#033235" offset="1"/></radialGradient><radialGradient fx="0" fy="0" cx="0" cy="0" r="1" gradientUnits="userSpaceOnUse" gradientTransform="matrix(5.2882 0 0 5.2882 129.998 53.411)" spreadMethod="pad" id="w"><stop style="stop-opacity:1;stop-color:#14686a" offset="0"/><stop style="stop-opacity:1;stop-color:#033235" offset="1"/></radialGradient><radialGradient fx="0" fy="0" cx="0" cy="0" r="1" gradientUnits="userSpaceOnUse" gradientTransform="translate(111.032 55.096) scale(6.2939)" spreadMethod="pad" id="v"><stop style="stop-opacity:1;stop-color:#14686a" offset="0"/><stop style="stop-opacity:1;stop-color:#033235" offset="1"/></radialGradient><radialGradient fx="0" fy="0" cx="0" cy="0" r="1" gradientUnits="userSpaceOnUse" gradientTransform="translate(69.527 85.685) scale(81.207)" spreadMethod="pad" id="G"><stop style="stop-opacity:1;stop-color:#57746e" offset="0"/><stop style="stop-opacity:1;stop-color:#4c6963" offset=".12"/><stop style="stop-opacity:1;stop-color:#3f5c57" offset=".31"/><stop style="stop-opacity:1;stop-color:#375551" offset=".503"/><stop style="stop-opacity:1;stop-color:#35534e" offset=".705"/><stop style="stop-opacity:1;stop-color:#34534f" offset=".831"/><stop style="stop-opacity:1;stop-color:#335652" offset=".877"/><stop style="stop-opacity:1;stop-color:#315b56" offset=".909"/><stop style="stop-opacity:1;stop-color:#2d615d" offset=".935"/><stop style="stop-opacity:1;stop-color:#266a67" offset=".958"/><stop style="stop-opacity:1;stop-color:#187574" offset=".978"/><stop style="stop-opacity:1;stop-color:#008184" offset=".995"/><stop style="stop-opacity:1;stop-color:#00868a" offset="1"/></radialGradient><radialGradient fx="0" fy="0" cx="0" cy="0" r="1" gradientUnits="userSpaceOnUse" gradientTransform="matrix(3.68495 -96.67928 75.23047 2.86742 69.575 94.192)" spreadMethod="pad" id="H"><stop style="stop-opacity:1;stop-color:#57746e" offset="0"/><stop style="stop-opacity:1;stop-color:#4c6963" offset=".12"/><stop style="stop-opacity:1;stop-color:#3f5c57" offset=".31"/><stop style="stop-opacity:1;stop-color:#375551" offset=".503"/><stop style="stop-opacity:1;stop-color:#35534e" offset=".705"/><stop style="stop-opacity:1;stop-color:#34534f" offset=".831"/><stop style="stop-opacity:1;stop-color:#335652" offset=".877"/><stop style="stop-opacity:1;stop-color:#315b56" offset=".909"/><stop style="stop-opacity:1;stop-color:#2d615d" offset=".935"/><stop style="stop-opacity:1;stop-color:#266a67" offset=".958"/><stop style="stop-opacity:1;stop-color:#187574" offset=".978"/><stop style="stop-opacity:1;stop-color:#008184" offset=".995"/><stop style="stop-opacity:1;stop-color:#00868a" offset="1"/></radialGradient><radialGradient fx="0" fy="0" cx="0" cy="0" r="1" gradientUnits="userSpaceOnUse" gradientTransform="matrix(44.6792 0 0 44.6792 45.382 80.24)" spreadMethod="pad" id="I"><stop style="stop-opacity:1;stop-color:#cbe8db" offset="0"/><stop style="stop-opacity:1;stop-color:#cbe8db" offset=".162"/><stop style="stop-opacity:1;stop-color:#b9d5ca" offset=".341"/><stop style="stop-opacity:1;stop-color:#90afa8" offset=".695"/><stop style="stop-opacity:1;stop-color:#6c928c" offset="1"/></radialGradient><radialGradient fx="0" fy="0" cx="0" cy="0" r="1" gradientUnits="userSpaceOnUse" gradientTransform="matrix(33.4742 1.13221 -.3107 9.18749 73.343 5.67)" spreadMethod="pad" id="J"><stop style="stop-opacity:1;stop-color:#7cccc1" offset="0"/><stop style="stop-opacity:1;stop-color:#52c3c3" offset=".272"/><stop style="stop-opacity:1;stop-color:#39c0c3" offset=".435"/><stop style="stop-opacity:1;stop-color:#34abaf" offset=".514"/><stop style="stop-opacity:1;stop-color:#2b989c" offset=".627"/><stop style="stop-opacity:1;stop-color:#258c8f" offset=".744"/><stop style="stop-opacity:1;stop-color:#218488" offset=".866"/><stop style="stop-opacity:1;stop-color:#208286" offset="1"/></radialGradient><radialGradient fx="0" fy="0" cx="0" cy="0" r="1" gradientUnits="userSpaceOnUse" gradientTransform="matrix(4.1274 -1.05933 .3611 1.40662 90.82 50.899)" spreadMethod="pad" id="j"><stop style="stop-opacity:1;stop-color:#14686a" offset="0"/><stop style="stop-opacity:1;stop-color:#033235" offset="1"/></radialGradient><radialGradient fx="-.665" fy="-.332" cx="0" cy="0" r="1" gradientUnits="userSpaceOnUse" gradientTransform="matrix(4.5017 0 0 4.5017 88.376 53.666)" spreadMethod="pad" id="k"><stop style="stop-opacity:1;stop-color:#14686a" offset="0"/><stop style="stop-opacity:1;stop-color:#033235" offset="1"/></radialGradient><radialGradient fx="0" fy="0" cx="0" cy="0" r="1" gradientUnits="userSpaceOnUse" gradientTransform="matrix(5.4574 0 0 5.4574 87.698 48.312)" spreadMethod="pad" id="l"><stop style="stop-opacity:1;stop-color:#14686a" offset="0"/><stop style="stop-opacity:1;stop-color:#033235" offset="1"/></radialGradient><radialGradient fx="0" fy="0" cx="0" cy="0" r="1" gradientUnits="userSpaceOnUse" gradientTransform="translate(110.6 50.587) scale(15.9704)" spreadMethod="pad" id="u"><stop style="stop-opacity:1;stop-color:#14686a" offset="0"/><stop style="stop-opacity:1;stop-color:#033235" offset="1"/></radialGradient><radialGradient fx="0" fy="0" cx="0" cy="0" r="1" gradientUnits="userSpaceOnUse" gradientTransform="matrix(17.8266 0 0 17.8266 100.787 56.092)" spreadMethod="pad" id="n"><stop style="stop-opacity:1;stop-color:#14686a" offset="0"/><stop style="stop-opacity:1;stop-color:#146769" offset=".405"/><stop style="stop-opacity:1;stop-color:#146365" offset=".575"/><stop style="stop-opacity:1;stop-color:#135c5e" offset=".701"/><stop style="stop-opacity:1;stop-color:#115254" offset=".806"/><stop style="stop-opacity:1;stop-color:#0d4648" offset=".897"/><stop style="stop-opacity:1;stop-color:#063739" offset=".977"/><stop style="stop-opacity:1;stop-color:#033235" offset="1"/></radialGradient><radialGradient fx="0" fy="0" cx="0" cy="0" r="1" gradientUnits="userSpaceOnUse" gradientTransform="matrix(3.8314 0 0 3.8314 99.84 47.635)" spreadMethod="pad" id="o"><stop style="stop-opacity:1;stop-color:#14686a" offset="0"/><stop style="stop-opacity:1;stop-color:#033235" offset="1"/></radialGradient><radialGradient fx="0" fy="0" cx="0" cy="0" r="1" gradientUnits="userSpaceOnUse" gradientTransform="translate(106.34 40.971) scale(5.9113)" spreadMethod="pad" id="p"><stop style="stop-opacity:1;stop-color:#14686a" offset="0"/><stop style="stop-opacity:1;stop-color:#033235" offset="1"/></radialGradient><radialGradient fx="0" fy="0" cx="0" cy="0" r="1" gradientUnits="userSpaceOnUse" gradientTransform="matrix(-4.8691 0 0 -1.52403 104.193 56.674)" spreadMethod="pad" id="q"><stop style="stop-opacity:1;stop-color:#14686a" offset="0"/><stop style="stop-opacity:1;stop-color:#033235" offset="1"/></radialGradient><radialGradient fx="0" fy="0" cx="0" cy="0" r="1" gradientUnits="userSpaceOnUse" gradientTransform="translate(103.495 49.24) scale(2.5643)" spreadMethod="pad" id="r"><stop style="stop-opacity:1;stop-color:#14686a" offset="0"/><stop style="stop-opacity:1;stop-color:#033235" offset="1"/></radialGradient><radialGradient fx="0" fy="0" cx="0" cy="0" r="1" gradientUnits="userSpaceOnUse" gradientTransform="matrix(6.2116 0 0 6.2116 120.492 50.47)" spreadMethod="pad" id="s"><stop style="stop-opacity:1;stop-color:#14686a" offset="0"/><stop style="stop-opacity:1;stop-color:#033235" offset="1"/></radialGradient><radialGradient fx="-.212" fy="-.037" cx="0" cy="0" r="1" gradientUnits="userSpaceOnUse" gradientTransform="matrix(8.21578 -.10444 .0226 1.77725 111.185 56.377)" spreadMethod="pad" id="t"><stop style="stop-opacity:1;stop-color:#14686a" offset="0"/><stop style="stop-opacity:1;stop-color:#033235" offset="1"/></radialGradient><radialGradient fx="0" fy="0" cx="0" cy="0" r="1" gradientUnits="userSpaceOnUse" gradientTransform="matrix(26.8082 .03502 -.03502 26.8082 122.218 59.969)" spreadMethod="pad" id="E"><stop style="stop-opacity:1;stop-color:#ceebf0" offset="0"/><stop style="stop-opacity:1;stop-color:#c7e8e9" offset=".065"/><stop style="stop-opacity:1;stop-color:#b3dfd9" offset=".165"/><stop style="stop-opacity:1;stop-color:#93d2bf" offset=".287"/><stop style="stop-opacity:1;stop-color:#82ccb1" offset=".344"/><stop style="stop-opacity:1;stop-color:#68bea2" offset="1"/></radialGradient><linearGradient x1="0" y1="0" x2="1" y2="0" gradientUnits="userSpaceOnUse" gradientTransform="matrix(10.2687 0 0 10.2687 135.657 49.69)" spreadMethod="pad" id="b"><stop style="stop-opacity:1;stop-color:#9cd5be" offset="0"/><stop style="stop-opacity:1;stop-color:#9cd4be" offset=".001"/><stop style="stop-opacity:1;stop-color:#86b7a5" offset=".102"/><stop style="stop-opacity:1;stop-color:#78a495" offset=".212"/><stop style="stop-opacity:1;stop-color:#6e988a" offset=".333"/><stop style="stop-opacity:1;stop-color:#699184" offset=".473"/><stop style="stop-opacity:1;stop-color:#678f83" offset=".677"/><stop style="stop-opacity:1;stop-color:#648c80" offset=".735"/><stop style="stop-opacity:1;stop-color:#5d8276" offset=".798"/><stop style="stop-opacity:1;stop-color:#517268" offset=".863"/><stop style="stop-opacity:1;stop-color:#405d55" offset=".93"/><stop style="stop-opacity:1;stop-color:#2b453e" offset=".998"/><stop style="stop-opacity:1;stop-color:#2a453e" offset="1"/></linearGradient><linearGradient x1="0" y1="0" x2="1" y2="0" gradientUnits="userSpaceOnUse" gradientTransform="matrix(46.7305 0 0 46.7305 53.995 111.582)" spreadMethod="pad" id="K"><stop style="stop-opacity:1;stop-color:#9cd5be" offset="0"/><stop style="stop-opacity:1;stop-color:#9cd4be" offset=".001"/><stop style="stop-opacity:1;stop-color:#86b7a5" offset=".102"/><stop style="stop-opacity:1;stop-color:#78a495" offset=".212"/><stop style="stop-opacity:1;stop-color:#6e988a" offset=".333"/><stop style="stop-opacity:1;stop-color:#699184" offset=".473"/><stop style="stop-opacity:1;stop-color:#678f83" offset=".677"/><stop style="stop-opacity:1;stop-color:#648c80" offset=".735"/><stop style="stop-opacity:1;stop-color:#5d8276" offset=".798"/><stop style="stop-opacity:1;stop-color:#517268" offset=".863"/><stop style="stop-opacity:1;stop-color:#405d55" offset=".93"/><stop style="stop-opacity:1;stop-color:#2b453e" offset=".998"/><stop style="stop-opacity:1;stop-color:#2a453e" offset="1"/></linearGradient><linearGradient x1="0" y1="0" x2="1" y2="0" gradientUnits="userSpaceOnUse" gradientTransform="scale(-32.156) rotate(-37.409 -7.242 5.405)" spreadMethod="pad" id="i"><stop style="stop-opacity:1;stop-color:#9cd5be" offset="0"/><stop style="stop-opacity:1;stop-color:#9cd4be" offset=".001"/><stop style="stop-opacity:1;stop-color:#86b7a5" offset=".102"/><stop style="stop-opacity:1;stop-color:#78a495" offset=".212"/><stop style="stop-opacity:1;stop-color:#6e988a" offset=".333"/><stop style="stop-opacity:1;stop-color:#699184" offset=".473"/><stop style="stop-opacity:1;stop-color:#678f83" offset=".677"/><stop style="stop-opacity:1;stop-color:#648c80" offset=".735"/><stop style="stop-opacity:1;stop-color:#5d8276" offset=".798"/><stop style="stop-opacity:1;stop-color:#517268" offset=".863"/><stop style="stop-opacity:1;stop-color:#405d55" offset=".93"/><stop style="stop-opacity:1;stop-color:#2b453e" offset=".998"/><stop style="stop-opacity:1;stop-color:#2a453e" offset="1"/></linearGradient><linearGradient x1="0" y1="0" x2="1" y2="0" gradientUnits="userSpaceOnUse" gradientTransform="matrix(-20.543 .126 -.126 -20.543 126.825 142.472)" spreadMethod="pad" id="h"><stop style="stop-opacity:1;stop-color:#9cd5be" offset="0"/><stop style="stop-opacity:1;stop-color:#9cd4be" offset=".001"/><stop style="stop-opacity:1;stop-color:#86b7a5" offset=".102"/><stop style="stop-opacity:1;stop-color:#78a495" offset=".212"/><stop style="stop-opacity:1;stop-color:#6e988a" offset=".333"/><stop style="stop-opacity:1;stop-color:#699184" offset=".473"/><stop style="stop-opacity:1;stop-color:#678f83" offset=".677"/><stop style="stop-opacity:1;stop-color:#648c80" offset=".735"/><stop style="stop-opacity:1;stop-color:#5d8276" offset=".798"/><stop style="stop-opacity:1;stop-color:#517268" offset=".863"/><stop style="stop-opacity:1;stop-color:#405d55" offset=".93"/><stop style="stop-opacity:1;stop-color:#2b453e" offset=".998"/><stop style="stop-opacity:1;stop-color:#2a453e" offset="1"/></linearGradient><linearGradient x1="0" y1="0" x2="1" y2="0" gradientUnits="userSpaceOnUse" gradientTransform="translate(14.916 54.853) scale(93.41519)" spreadMethod="pad" id="F"><stop style="stop-opacity:1;stop-color:#9cd5be" offset="0"/><stop style="stop-opacity:1;stop-color:#9cd4be" offset=".001"/><stop style="stop-opacity:1;stop-color:#86b7a5" offset=".102"/><stop style="stop-opacity:1;stop-color:#78a495" offset=".212"/><stop style="stop-opacity:1;stop-color:#6e988a" offset=".333"/><stop style="stop-opacity:1;stop-color:#699184" offset=".473"/><stop style="stop-opacity:1;stop-color:#678f83" offset=".677"/><stop style="stop-opacity:1;stop-color:#648c80" offset=".735"/><stop style="stop-opacity:1;stop-color:#5d8276" offset=".798"/><stop style="stop-opacity:1;stop-color:#517268" offset=".863"/><stop style="stop-opacity:1;stop-color:#405d55" offset=".93"/><stop style="stop-opacity:1;stop-color:#2b453e" offset=".998"/><stop style="stop-opacity:1;stop-color:#2a453e" offset="1"/></linearGradient><linearGradient x1="0" y1="0" x2="1" y2="0" gradientUnits="userSpaceOnUse" gradientTransform="scale(34.7788) rotate(17.804 -11.601 3.457)" spreadMethod="pad" id="f"><stop style="stop-opacity:1;stop-color:#9cd5be" offset="0"/><stop style="stop-opacity:1;stop-color:#9cd4be" offset=".001"/><stop style="stop-opacity:1;stop-color:#86b7a5" offset=".102"/><stop style="stop-opacity:1;stop-color:#78a495" offset=".212"/><stop style="stop-opacity:1;stop-color:#6e988a" offset=".333"/><stop style="stop-opacity:1;stop-color:#699184" offset=".473"/><stop style="stop-opacity:1;stop-color:#678f83" offset=".677"/><stop style="stop-opacity:1;stop-color:#648c80" offset=".735"/><stop style="stop-opacity:1;stop-color:#5d8276" offset=".798"/><stop style="stop-opacity:1;stop-color:#517268" offset=".863"/><stop style="stop-opacity:1;stop-color:#405d55" offset=".93"/><stop style="stop-opacity:1;stop-color:#2b453e" offset=".998"/><stop style="stop-opacity:1;stop-color:#2a453e" offset="1"/></linearGradient><linearGradient x1="0" y1="0" x2="1" y2="0" gradientUnits="userSpaceOnUse" gradientTransform="matrix(17.45142 0 0 17.45142 112.022 100.74)" spreadMethod="pad" id="e"><stop style="stop-opacity:1;stop-color:#9cd5be" offset="0"/><stop style="stop-opacity:1;stop-color:#9cd4be" offset=".001"/><stop style="stop-opacity:1;stop-color:#86b7a5" offset=".102"/><stop style="stop-opacity:1;stop-color:#78a495" offset=".212"/><stop style="stop-opacity:1;stop-color:#6e988a" offset=".333"/><stop style="stop-opacity:1;stop-color:#699184" offset=".473"/><stop style="stop-opacity:1;stop-color:#678f83" offset=".677"/><stop style="stop-opacity:1;stop-color:#648c80" offset=".735"/><stop style="stop-opacity:1;stop-color:#5d8276" offset=".798"/><stop style="stop-opacity:1;stop-color:#517268" offset=".863"/><stop style="stop-opacity:1;stop-color:#405d55" offset=".93"/><stop style="stop-opacity:1;stop-color:#2b453e" offset=".998"/><stop style="stop-opacity:1;stop-color:#2a453e" offset="1"/></linearGradient><linearGradient x1="0" y1="0" x2="1" y2="0" gradientUnits="userSpaceOnUse" gradientTransform="translate(2.616 87.65) scale(111.15341)" spreadMethod="pad" id="d"><stop style="stop-opacity:1;stop-color:#9cd5be" offset="0"/><stop style="stop-opacity:1;stop-color:#9cd4be" offset=".001"/><stop style="stop-opacity:1;stop-color:#86b7a5" offset=".102"/><stop style="stop-opacity:1;stop-color:#78a495" offset=".212"/><stop style="stop-opacity:1;stop-color:#6e988a" offset=".333"/><stop style="stop-opacity:1;stop-color:#699184" offset=".473"/><stop style="stop-opacity:1;stop-color:#678f83" offset=".677"/><stop style="stop-opacity:1;stop-color:#648c80" offset=".735"/><stop style="stop-opacity:1;stop-color:#5d8276" offset=".798"/><stop style="stop-opacity:1;stop-color:#517268" offset=".863"/><stop style="stop-opacity:1;stop-color:#405d55" offset=".93"/><stop style="stop-opacity:1;stop-color:#2b453e" offset=".998"/><stop style="stop-opacity:1;stop-color:#2a453e" offset="1"/></linearGradient><linearGradient x1="0" y1="0" x2="1" y2="0" gradientUnits="userSpaceOnUse" gradientTransform="matrix(5.0098 0 0 5.0098 124.962 29.64)" spreadMethod="pad" id="c"><stop style="stop-opacity:1;stop-color:#9cd5be" offset="0"/><stop style="stop-opacity:1;stop-color:#9cd4be" offset=".001"/><stop style="stop-opacity:1;stop-color:#86b7a5" offset=".102"/><stop style="stop-opacity:1;stop-color:#78a495" offset=".212"/><stop style="stop-opacity:1;stop-color:#6e988a" offset=".333"/><stop style="stop-opacity:1;stop-color:#699184" offset=".473"/><stop style="stop-opacity:1;stop-color:#678f83" offset=".677"/><stop style="stop-opacity:1;stop-color:#648c80" offset=".735"/><stop style="stop-opacity:1;stop-color:#5d8276" offset=".798"/><stop style="stop-opacity:1;stop-color:#517268" offset=".863"/><stop style="stop-opacity:1;stop-color:#405d55" offset=".93"/><stop style="stop-opacity:1;stop-color:#2b453e" offset=".998"/><stop style="stop-opacity:1;stop-color:#2a453e" offset="1"/></linearGradient><linearGradient x1="0" y1="0" x2="1" y2="0" gradientUnits="userSpaceOnUse" gradientTransform="scale(18.25976) rotate(-15.663 32.108 -6.74)" spreadMethod="pad" id="g"><stop style="stop-opacity:1;stop-color:#9cd5be" offset="0"/><stop style="stop-opacity:1;stop-color:#9cd4be" offset=".001"/><stop style="stop-opacity:1;stop-color:#86b7a5" offset=".102"/><stop style="stop-opacity:1;stop-color:#78a495" offset=".212"/><stop style="stop-opacity:1;stop-color:#6e988a" offset=".333"/><stop style="stop-opacity:1;stop-color:#699184" offset=".473"/><stop style="stop-opacity:1;stop-color:#678f83" offset=".677"/><stop style="stop-opacity:1;stop-color:#648c80" offset=".735"/><stop style="stop-opacity:1;stop-color:#5d8276" offset=".798"/><stop style="stop-opacity:1;stop-color:#517268" offset=".863"/><stop style="stop-opacity:1;stop-color:#405d55" offset=".93"/><stop style="stop-opacity:1;stop-color:#2b453e" offset=".998"/><stop style="stop-opacity:1;stop-color:#2a453e" offset="1"/></linearGradient></defs><path d="M68.287 154.778c-4.871-.021-8.645-1.097-9.765-1.438h.1l.5-.8c6.4 0 12.1-4 13.4-4.899-23.3 7.399-44.2-7.4-51.799-17.001l.7-.7c12.999 6.801 25.699 7.5 25.899 7.5-14.4-2.6-23.899-8.5-33.2-18.8C3.846 107.253.018 92.038 0 77.746v-.215C.016 66.173 2.432 55.414 5.922 47.64v.1-.1l1.2.3c-5.8 28 6.7 48 16.7 58.6 10.3 10.9 30.3 21.7 49.5 20.9 32.001-1.2 38.5-16.699 38.7-19.6V107.54s9.1-.9 13.3-7.9c1.201-2 2.1-3.9 2.501-5.9.499-4.7-1.501-10.9-7.001-15 0 3.5-2.2 8.3-9.101 8.3-17.699-.1-33.399-15.6-33.799-33.099-.499-18.701 13.601-37.901 37.6-37.501 8.6 5.9 13.9 20.9 13.9 20.9s0-.201-.1-.599c-.3-1.501-1.499-7.3-4.2-13.601l.099-.4c19.201 19.201 17.701 49.5 14.601 59.5 1.1-2.9 2-5.799 2.7-8.499.8-3.701 1.6-8.401 1.8-14.102.7-20.699-8.499-33.399-8.499-33.399l.499-.6c11.389 13.384 20.152 30.083 20.199 48.952v.322a62.037 62.037 0 0 1-1.099 11.426c-3.3 17.2-15 29.4-24.5 35.6 11.101-4.9 18.101-12.4 19.101-14.2l.899.5c-9.7 25.901-31.5 33.3-42.899 33.901 9.198 2.399 15-.801 15-.801l.399.999c-3.6 2.801-15.599 9.501-28.099 5.501-.201 4.8-2.8 6.8-2.8 6.8s-4.5-.7-7-5.399c-5.637 4.327-11.856 5.515-16.937 5.537z" style="fill:url(#a);stroke:none" transform="matrix(4.47224 0 0 -4.47224 0 692.205)"/><path d="M144.122 59.639c.701-20.699-8.5-33.399-8.5-33.399l.5-.6c6.3 11.7 11.3 28 6.2 48.101.8-3.701 1.6-8.401 1.8-14.102" style="fill:url(#b);stroke:none" transform="matrix(4.47224 0 0 -4.47224 0 692.205)"/><path d="m129.097 36.477.025.163-.025-.163m-4.175-13.437.101-.401c2.338 4.581 3.727 11.63 4.074 13.838-.268-1.644-1.57-7.26-4.175-13.437" style="fill:url(#c);stroke:none" transform="matrix(4.47224 0 0 -4.47224 0 692.205)"/><path d="M27.322 110.34c-20.901-18.1-25.7-45.899-21.5-62.6v-.1l1.2.3c-5.8 28 6.7 48 16.7 58.6 10.3 10.9 30.3 21.7 49.5 20.9 32-1.2 38.499-16.699 38.7-19.6.3 3.4-8.1 19-38.4 19.8-.546.014-1.092.021-1.634.021-18.295.001-33.882-8.095-44.566-17.321" style="fill:url(#d);stroke:none" transform="matrix(4.47224 0 0 -4.47224 0 692.205)"/><path d="M112.022 107.54s9.1-.9 13.3-7.9c1.201-2 2.1-3.9 2.501-5.9a9.496 9.496 0 0 1-.801 3c-2.9 6.6-7.6 9.9-15 11z" style="fill:url(#e);stroke:none" transform="matrix(4.47224 0 0 -4.47224 0 692.205)"/><path d="m20.723 130.64.7-.7c12.999 6.801 25.699 7.5 25.899 7.5l-.354.001c-13.212.001-22.479-5.512-26.245-6.801" style="fill:url(#f);stroke:none" transform="matrix(4.47224 0 0 -4.47224 0 692.205)"/><path d="M59.122 152.54c6.4 0 12.1-4 13.4-4.899.2 0 .301-.101.5-.101-4.4 3.4-10.4 5.8-14.4 5.8z" style="fill:url(#g);stroke:none" transform="matrix(4.47224 0 0 -4.47224 0 692.205)"/><path d="M106.322 142.24h1.701c9.198 2.4 15-.8 15-.8l.399 1c-2.199.564-5.098 1.16-8.48 1.16-2.617 0-5.523-.357-8.62-1.36" style="fill:url(#h);stroke:none" transform="matrix(4.47224 0 0 -4.47224 0 692.205)"/><path d="M130.822 121.94c11.201-4.9 18.201-12.4 19.201-14.2l.899.5c-5.3 5.9-12.201 11-23.6 15.8 1.1-.6 2.3-1.3 3.5-2.1" style="fill:url(#i);stroke:none" transform="matrix(4.47224 0 0 -4.47224 0 692.205)"/><g><path d="m89.922 51.941 1.2-.302c.401-.099.8-.199 1.2-.398.186-.047.373-.116.559-.206a6.616 6.616 0 0 1-.959.405c-.399.199-.8.3-1.2.4l-1.2.3c-.4.1-.7.2-.9.3.2-.2.599-.3 1.3-.499m3.578-1.285a3.75 3.75 0 0 1-.619.379c.232-.12.444-.249.619-.379m.023-.017-.023.017.023-.017" style="fill:url(#j);stroke:none" transform="matrix(4.47224 0 0 -4.47224 0 692.205)"/><path d="M86.222 55.84c-.899-.701-1.4-1.6-1.3-2.7 0-.8.2-1.501.7-2.1.1-.401.3-.5.5-.7-.099.101-.2.2-.3.4-.4.6-.6 1.3-.6 2.1 0 1.101.499 2.101 1.4 2.8.9.7 2.1 1.1 3.599 1.1.701 0 1.401-.1 2.101-.2.3-.099.6-.2.9-.2-.4.2-.9.3-1.399.4-.701.1-1.401.2-2.101.2-1.4 0-2.6-.4-3.5-1.1" style="fill:url(#k);stroke:none" transform="matrix(4.47224 0 0 -4.47224 0 692.205)"/><path d="M85.122 45.139v-.198l1.901 1.899-.101.299z" style="fill:url(#l);stroke:none" transform="matrix(4.47224 0 0 -4.47224 0 692.205)"/><path d="M91.523 47.74c0-.299-.101-.5-.201-.7-.101-.2-.3-.299-.499-.4-.201-.1-.401-.1-.701-.199-.299-.101-.5-.101-.7-.101-1.5 0-2.3.6-2.5.6l.101-.3c.099-.1.299-.1.399-.199.7-.302 1.4-.401 2.1-.401.2 0 .4 0 .699.099.302 0 .501.101.701.201.2.101.4.2.5.401.101.199.2.398.2.7 0 .399-.099.599-.3.799.1-.1.1-.3.201-.5" style="fill:url(#m);stroke:none" transform="matrix(4.47224 0 0 -4.47224 0 692.205)"/><path d="m96.622 44.74.3-.4 4 12.2-.3.2z" style="fill:url(#n);stroke:none" transform="matrix(4.47224 0 0 -4.47224 0 692.205)"/><path d="m101.422 49.24-.1-.2h2.5l-.299.2z" style="fill:url(#o);stroke:none" transform="matrix(4.47224 0 0 -4.47224 0 692.205)"/><path d="m104.222 46.94.7-2.3.3-.1-.8 2.4z" style="fill:url(#p);stroke:none" transform="matrix(4.47224 0 0 -4.47224 0 692.205)"/><path d="m100.622 56.74.3-.2h3.3l-.3.2z" style="fill:url(#q);stroke:none" transform="matrix(4.47224 0 0 -4.47224 0 692.205)"/><path d="m102.422 52.64 1.101-3.4.299-.2-1.299 4z" style="fill:url(#r);stroke:none" transform="matrix(4.47224 0 0 -4.47224 0 692.205)"/><path d="M114.122 52.34v-.1h4.6l-.3.1z" style="fill:url(#s);stroke:none" transform="matrix(4.47224 0 0 -4.47224 0 692.205)"/><path d="m112.922 57.04.3-.2h5.9l-.299.2z" style="fill:url(#t);stroke:none" transform="matrix(4.47224 0 0 -4.47224 0 692.205)"/><path d="m110.822 44.941.3-.101v9.8l-.3.301z" style="fill:url(#u);stroke:none" transform="matrix(4.47224 0 0 -4.47224 0 692.205)"/><path d="m110.822 54.941.3-.301 2.1 2.2-.3.2z" style="fill:url(#v);stroke:none" transform="matrix(4.47224 0 0 -4.47224 0 692.205)"/><path d="M125.322 52.84v-.2l4.201.2-.501.101z" style="fill:url(#w);stroke:none" transform="matrix(4.47224 0 0 -4.47224 0 692.205)"/><path d="m121.822 45.34.501-.1v9.899l-.501.101z" style="fill:url(#x);stroke:none" transform="matrix(4.47224 0 0 -4.47224 0 692.205)"/><path d="m123.922 57.34.5-.1 5.5.1-.5.101z" style="fill:url(#y);stroke:none" transform="matrix(4.47224 0 0 -4.47224 0 692.205)"/><path d="m121.822 55.24.501-.101 2.099 2.101-.5.1z" style="fill:url(#z);stroke:none" transform="matrix(4.47224 0 0 -4.47224 0 692.205)"/><path d="m121.822 55.24.501-.101 2.099 2.101-.5.1z" style="fill:url(#A);stroke:none" transform="matrix(4.47224 0 0 -4.47224 0 692.205)"/><path d="m100.922 56.54-4-12.2h1.299l2.501 2.6h3.8l.801-2.3 3.099.1-4.2 11.8zm1.601-3.5 1.199-4h-2.4z" style="fill:url(#B);stroke:none" transform="matrix(4.47224 0 0 -4.47224 0 692.205)"/><path d="M86.622 55.64c-.9-.699-1.399-1.6-1.399-2.8 0-.8.199-1.599.599-2.1.401-.6 1.1-1 2-1.299.401-.101.8-.301 1.3-.401.5-.1.901-.2 1.3-.3.3-.1.6-.2.799-.4.201-.2.401-.4.401-.7 0-.3-.099-.501-.2-.7-.1-.199-.3-.3-.5-.4-.2-.099-.399-.099-.701-.2-.299 0-.499-.1-.699-.1-.7 0-1.4.1-2.1.4-.1.101-.3.101-.399.2l-1.801-1.899c.6-.301 1.2-.501 1.9-.701.7-.2 1.5-.299 2.4-.299 1.6 0 3.001.399 3.9 1.099.901.701 1.4 1.701 1.4 2.9 0 .8-.2 1.501-.6 2-.4.6-1.1 1.1-2 1.4-.399.2-.8.299-1.2.4l-1.199.3c-.602.1-1.001.3-1.301.5-.2.2-.3.401-.3.7 0 .2.1.4.2.6.1.2.3.299.5.4.2.1.4.2.7.2.201 0 .401.1.7.1.7 0 1.3-.1 2-.401h.1l1.801 1.801c-.601.3-1.201.4-1.901.6-.7.2-1.4.2-2.1.2-1.4 0-2.6-.4-3.6-1.1" style="fill:url(#C);stroke:none" transform="matrix(4.47224 0 0 -4.47224 0 692.205)"/><path d="m113.222 56.84-2.1-2.2v-9.8h3v5.1h4.6v2.3h-4.6v2.3h5v2.3z" style="fill:url(#D);stroke:none" transform="matrix(4.47224 0 0 -4.47224 0 692.205)"/><path d="m124.422 57.24-2.099-2.101V45.24h2.999v5.1l4.201.2v2.3l-4.201-.2v2.301l4.6.198v2.201z" style="fill:url(#E);stroke:none" transform="matrix(4.47224 0 0 -4.47224 0 692.205)"/></g><g><path d="m17.422 75.94-.6-2.4c0-.099 0-.2-.1-.3-.2-.8-.3-1.5-.499-2.299 0-.101 0-.201-.101-.301-.099-.699-.3-1.5-.4-2.199v-.301c-.1-.699-.2-1.5-.3-2.2v-.1c-.299-2.4-.5-4.599-.5-6.8-.3-21 10.4-33.8 12.3-36.3 6.001-7.799 13.7-13.4 21.8-17 .2-.101.401-.2.6-.299.6-.2 1.1-.501 1.7-.701.2-.101.5-.2.701-.299.6-.201 1.099-.401 1.699-.601.201-.1.4-.2.6-.2.8-.3 1.6-.5 2.301-.801.1 0 .199 0 .299-.099.601-.2 1.201-.4 1.8-.5.301-.101.5-.101.8-.2.4-.1.9-.2 1.3-.299.3-.101.6-.101.9-.201l1.201-.3c.299-.101.6-.101.9-.2.399-.099.799-.099 1.199-.2.3 0 .6-.099.8-.099.4-.101.9-.101 1.3-.201.201 0 .5-.1.7-.1.601-.1 1.3-.1 1.9-.2h.6c.5 0 .9-.101 1.4-.101H77.423c.099-.099.399-.099.6 0h-.001c.4 0 .8 0 1.2.101h.6c.6 0 1.1.1 1.701.2.2 0 .399.1.7.1.399 0 .699.1 1 .1.199 0 .5.101.699.101.301 0 .601.099.9.099.3 0 .501.101.701.101.299.099.599.099.899.198.2 0 .5.101.7.101.3.1.601.1.901.201.2.099.499.099.7.199.3.101.699.2 1 .2.3.1.599.2.899.2.3.099.7.2 1 .3.201.101.5.101.7.2.201.1.5.1.7.2.201.099.501.099.7.2.2.1.501.1.7.2.2.1.5.2.7.2.201.101.4.2.601.2.199.1.5.2.699.3.2.1.4.2.601.2.2.1.499.2.7.3.199.101.3.101.499.2.501.2.9.4 1.301.6.2.101.3.101.499.2.201.101.501.2.701.299.1.101.299.101.399.201.2.101.401.2.7.3.1.101.3.101.401.2l.599.299c.1.101.2.101.401.201.199.101.399.2.599.3 1.7.9 3.1 1.801 4.3 2.601-.2.099-.399.299-.6.299-3.4-.4-7.4-.7-11.9-.6-.9 0-2.3-.499-3-1.2a90.07 90.07 0 0 0-6.7-5.799c-2-.201-7.4-.501-9.3-.501 0 0 .1 0 .1.1.2.099.301.2.5.3.101.101.201.101.3.2.1 0 .1.1.2.1 2.1 1.4 5.4 3.8 7.2 5.8.301.3.601.6.8.9.8 1 1.2 2.499.501 4.299-.501 1.401-2.101 5.001-2.5 6.001-.401 1-1.801 1.9-4.301 2.1-13.2 1-19.999 4.201-24.7 5.8-1.1.401-2.9.3-3.8-.401l-.3-.198-.1-.101-4.599-3.599-.501-.401-.399-.3c-1-.7-1.601-2.099-1.301-3.2.7-3.1 3.5-8 4.801-10.201-2.801 1.701-8.701 5.601-9.301 6.201-1 2.3-2.699 6.101-2.9 7-.2.8-1.2 2.1-2 2.5-2.4 1.101-4.3 2.2-6.799 3.601-.7.899-3.601 6.199-4.601 9 3.6-2.901 8.7-5.701 9.6-6.101 1.9-.8 3.7-.1 4.8.7.201.1.401.201.5.3l4.9 3.7c1 .701 1.6 2.5 1.4 3.7-1.4 7.6-2.699 17.2-1.899 25.001.099 1.199-.8 3.299-1.9 3.999 0 0-8.401 6.001-8.8 6.1-.301.1-.701.1-1.1.2-.8.1-1.7.1-2.301-.4-3.3-2.6-6.8-5.6-9.1-8.199.4 2.8.9 5.599 1.701 8.599 2.4 2.3 4.799 4.201 7.499 6.1.9.601 1.501 1.5 1.6 2.501.2 3.699.8 7.999 1.8 11.6 4.901 5.899 11 10.699 16.6 13.999-.099.1-.2.3-.2.4-21.7-9.2-29-28.2-30.6-33.7" style="fill:url(#F);stroke:none" transform="matrix(4.47224 0 0 -4.47224 0 692.205)"/><path d="M53.823 112.54c7.799 2 15.799 2 23.6.4 2.399-1.4 4.499-3.1 6.499-4.8.4-.3 1-.6 1.5-.7.5-.1 1.2-.2 1.601-.1 4.399 1.1 9 1.7 13.599 1.8-4.299 2.3-8.799 4-13.599 5.101-1.801.399-3.601.699-5.5 1-.201 0-.302 0-.5.099-.601.1-1.301.2-1.901.2a61.848 61.848 0 0 1-6.32.325c-7.302 0-13.99-1.298-18.979-3.325" style="fill:url(#G);stroke:none" transform="matrix(4.47224 0 0 -4.47224 0 692.205)"/><path d="M17.422 75.94c-8.7-30.999 7.3-50.1 9.8-53.301C35.122 12.34 45.923 6.04 56.723 2.74c24.1-7.299 43.599 1.701 51.498 7.1-3.399-.4-8.099-.8-12.898-.701-.901 0-2.301-.499-3.001-1.198a74.5 74.5 0 0 0-6.7-5.901c-2.099-.299-8.2-.599-9.7-.5 1.1.599 7.1 4.6 9.601 7.401.8 1 1.198 2.5.5 4.299-.5 1.399-2.101 5.1-2.5 6.1-.401 1-1.801 2-4.301 2.2-13.2 1.099-20 4.3-24.7 5.8-1.1.401-2.9.3-3.8-.399l-5.5-4.302c-1-.699-1.6-2.099-1.3-3.198.901-4.101 5.401-11.101 5.5-11.201-1.8.899-9.8 6.201-10.4 6.8-1 2.3-2.7 6.2-2.9 7.1-.2.9-1.2 2.101-2 2.499-2.4 1.101-4.3 2.201-6.8 3.601-.8 1-4.3 7.4-4.899 9.899 3.599-2.999 9.399-6.199 10.299-6.599 1.9-.8 3.9 0 4.9.701l4.9 3.7c1 .699 1.6 2.5 1.4 3.699-1.4 7.7-2.7 17.4-1.9 25.101.1 1.199-.8 3.299-1.9 3.999 0 0-8.4 6.001-8.799 6.1-.9.2-2.201.3-2.901-.3-3.6-2.8-7.3-6.099-9.599-8.9.299 2.999.999 6.1 1.699 9.2 2.4 2.3 4.8 4.301 7.5 6.1.9.6 1.5 1.5 1.6 2.5.2 3.7.801 8 1.801 11.7 4.899 6 11.199 10.9 16.899 14.3-22-9-29.3-28-30.9-33.5" style="fill:url(#H);stroke:none" transform="matrix(4.47224 0 0 -4.47224 0 692.205)"/><path d="M17.422 75.94c-2-6.999-2.7-13.4-2.5-19.2 4.801-15.2 19.6-23.4 19.6-23.4v-.899l4.201.8 3.699 2.799c1.1.8 1.7 2.6 1.501 3.8h-.001c-1.4 7.7-2.7 17.4-1.9 25.1.1 1.2-.8 3.301-1.9 4.001 0 0-8.4 5.999-8.799 6.099-.9.2-2.201.3-2.901-.299-3.6-2.8-7.3-6.102-9.599-8.901.299 3 .999 6.101 1.699 9.2 2.4 2.3 4.8 4.3 7.5 6.1.9.601 1.5 1.5 1.6 2.501.2 3.699.801 7.999 1.801 11.699 4.899 6 11.199 10.901 16.899 14.3-22-9.2-29.3-28.2-30.9-33.7" style="fill:url(#I);stroke:none" transform="matrix(4.47224 0 0 -4.47224 0 692.205)"/><path d="M51.122 7.54c-.2-.1-4.399-.7-4.399-.7 3.299-1.599 6.599-3 10-4.001 20.499-6.2 37.699-.7 47.199 4.5-5.701-1.999-11.3-3.199-16.6-3.699-.601-.5-1.2-1-1.7-1.4-2.099-.3-8.2-.6-9.7-.499.401.199 1.2.7 2.2 1.399-13.9.1-22.7 3.499-24 4-.95.4-1.65.5-2.137.5-.488 0-.763-.1-.863-.1" style="fill:url(#J);stroke:none" transform="matrix(4.47224 0 0 -4.47224 0 692.205)"/><path d="M53.823 112.64c.199-.1.199-.2.299-.2 7.8 2 15.7 2 23.4.4 2.2-1.5 4.4-3.099 6.4-4.8.4-.3 1-.6 1.5-.7.5-.1 1.2-.199 1.601-.1 4.399 1.1 9 1.7 13.599 1.8v.2a54.313 54.313 0 0 1-13.599 5.1c-1.801.4-3.601.7-5.5 1-.201 0-.302 0-.5.1-.601.1-1.301.2-1.901.2a61.559 61.559 0 0 1-6.32.324c-7.302.001-13.99-1.297-18.979-3.324" style="fill:url(#K);stroke:none" transform="matrix(4.47224 0 0 -4.47224 0 692.205)"/></g></svg>