<?xml version="1.0" encoding="utf-8"?>
<!-- Generator: Adobe Illustrator 25.0.0, SVG Export Plug-In . SVG Version: 6.00 Build 0)  -->
<svg version="1.1" id="Camada_1" xmlns="http://www.w3.org/2000/svg" xmlns:xlink="http://www.w3.org/1999/xlink" x="0px" y="0px"
	 viewBox="0 0 40 40" style="enable-background:new 0 0 40 40;" xml:space="preserve">
<image style="display:none;overflow:visible;enable-background:new    ;" width="166" height="178" xlink:href="D7BF3D22.jpeg"  transform="matrix(0.3321 0 0 0.3321 -2.6867 -9)">
</image>
<g>
	<g>
		<path d="M7,28.3c0-1.9,0-3.8,0-5.8c0-0.9,0.3-1.5,1-2c3.8-2.7,7.5-5.4,11.3-8.1c0.7-0.5,1.3-0.5,2.1,0c3.7,2.7,7.4,5.3,11.1,8
			c0.8,0.6,1.2,1.3,1.2,2.3c0,3.8,0,7.5,0,11.3c0,2-1,3-3,3.1c-2.1,0-4.2,0-6.2,0c-0.8,0-0.9-0.3-0.9-1c0-2.8,0-5.7,0-8.5
			c0-1.8-0.4-2.1-2.1-2c-0.8,0-1.7,0-2.5,0c-1.3,0-1.7,0.3-1.7,1.7c0,2.9,0,5.8,0,8.6c0,0.8-0.1,1.1-1,1.1c-2.2,0.1-4.4,0.1-6.6,0
			C7.8,36.9,7,36,7,34.3C6.9,32.3,7,30.3,7,28.3z"/>
		<path d="M27.8,9.6c0-1,0-1.7,0-2.5c0-0.9,0.4-1.3,1.3-1.4c1,0,1.9,0,2.9,0c1,0,1.4,0.5,1.4,1.5c-0.1,1.5-0.3,3-0.1,4.5
			c0.3,1.7,1.2,2.9,2.7,3.8c0.4,0.3,0.9,0.5,1.3,0.8c1.8,1.4,1.7,2.9-0.2,4.2c-0.8,0.5-1.3,0-1.8-0.4c-3.8-2.7-7.6-5.4-11.4-8.2
			c-0.9-0.7-1.8-1.3-2.7-2c-0.6-0.5-1-0.5-1.7,0c-4.3,3.1-8.6,6.2-12.8,9.2c-0.5,0.3-1,0.7-1.5,1c-1.1,0.5-2.2,0.1-2.8-0.9
			c-0.7-1.2-0.5-1.9,0.7-2.8C8.3,12.7,13.7,8.9,19.1,5c0.9-0.6,1.6-0.6,2.4,0C23.5,6.5,25.5,8,27.8,9.6z"/>
	</g>
</g>
</svg>
