<?xml version="1.0" encoding="utf-8"?>
<!-- Generator: Adobe Illustrator 25.0.0, SVG Export Plug-In . SVG Version: 6.00 Build 0)  -->
<svg version="1.1" id="Camada_1" xmlns="http://www.w3.org/2000/svg" xmlns:xlink="http://www.w3.org/1999/xlink" x="0px" y="0px"
	 viewBox="0 0 40 40" style="enable-background:new 0 0 40 40;" xml:space="preserve">
<style type="text/css">
	.st0{fill:#FFFFFF;}
</style>
<image style="display:none;overflow:visible;enable-background:new    ;" width="166" height="178" xlink:href="4BF60AAF.jpeg"  transform="matrix(0.3321 0 0 0.3321 -2.6867 -9)">
</image>
<g>
	<path class="st0" d="M29.8,24H4.2C3,24,2,23,2,21.8v-2.6C2,18,3,17,4.2,17h25.6c1.2,0,2.2,1,2.2,2.2v2.6C32,23,31,24,29.8,24z"/>
</g>
<g>
	<path class="st0" d="M32.6,24L17.3,8.8c-0.9-0.9-0.9-2.3,0-3.1l1.8-1.8C20,3,21.4,3,22.3,3.8l15.2,15.2c0.9,0.9,0.9,2.3,0,3.1
		L35.7,24C34.8,24.9,33.4,24.9,32.6,24z"/>
</g>
<g>
	<path class="st0" d="M20.7,38.2c-0.5,0-0.9-0.2-1.2-0.5l-1.8-1.8c-0.7-0.7-0.7-1.8,0-2.4l15.2-15.2c0.3-0.3,0.8-0.5,1.2-0.5
		s0.9,0.2,1.2,0.5l1.8,1.8c0.3,0.3,0.5,0.8,0.5,1.2s-0.2,0.9-0.5,1.2L21.9,37.7C21.6,38,21.2,38.2,20.7,38.2z"/>
	<path class="st0" d="M34.1,18.2c0.3,0,0.6,0.1,0.9,0.4l1.8,1.8c0.2,0.2,0.3,0.5,0.3,0.9s-0.1,0.6-0.3,0.9L21.6,37.3
		c-0.2,0.2-0.5,0.3-0.9,0.3s-0.6-0.1-0.9-0.3L18,35.5c-0.2-0.2-0.4-0.5-0.4-0.9s0.1-0.6,0.4-0.9l15.2-15.2
		C33.5,18.3,33.8,18.2,34.1,18.2 M34.1,17.2c-0.6,0-1.1,0.2-1.6,0.6L17.3,33.1c-0.9,0.9-0.9,2.3,0,3.1l1.8,1.8
		c0.4,0.4,1,0.7,1.6,0.7s1.1-0.2,1.6-0.7l15.2-15.2c0.9-0.9,0.9-2.3,0-3.1l-1.8-1.8C35.3,17.4,34.7,17.2,34.1,17.2L34.1,17.2z"/>
</g>
</svg>
