<?xml version="1.0" encoding="utf-8"?>
<!-- Generator: Adobe Illustrator 25.0.0, SVG Export Plug-In . SVG Version: 6.00 Build 0)  -->
<svg version="1.1" id="Camada_1" xmlns="http://www.w3.org/2000/svg" xmlns:xlink="http://www.w3.org/1999/xlink" x="0px" y="0px"
	 viewBox="0 0 40 40" style="enable-background:new 0 0 40 40;" xml:space="preserve">
<style type="text/css">
	.st0{fill:#FFFFFF;}
</style>
<image style="display:none;overflow:visible;enable-background:new    ;" width="166" height="178" xlink:href="5D04ED22.jpeg"  transform="matrix(0.3321 0 0 0.3321 -2.6867 -9)">
</image>
<g>
	<g>
		<path class="st0" d="M9.7,16.8h27c1.3,0,2.3,1.1,2.3,2.3v2.7c0,1.3-1.1,2.3-2.3,2.3h-27c-1.3,0-2.3-1.1-2.3-2.3v-2.7
			C7.4,17.8,8.5,16.8,9.7,16.8z"/>
	</g>
	<g>
		<path class="st0" d="M6.8,16.7l16.1,16.1c0.9,0.9,0.9,2.4,0,3.3L21,38.1c-0.9,0.9-2.4,0.9-3.3,0L1.6,22c-0.9-0.9-0.9-2.4,0-3.3
			l1.9-1.9C4.4,15.8,5.9,15.8,6.8,16.7z"/>
	</g>
	<g>
		<path class="st0" d="M19.3,1.8c0.5,0,0.9,0.2,1.3,0.5l1.9,1.9c0.7,0.7,0.7,1.9,0,2.6L6.4,22.9c-0.3,0.3-0.8,0.5-1.3,0.5
			s-0.9-0.2-1.3-0.5L2,21c-0.3-0.3-0.5-0.8-0.5-1.3s0.2-0.9,0.5-1.3L18,2.3C18.4,2,18.8,1.8,19.3,1.8z"/>
		<path class="st0" d="M5.1,22.9c-0.3,0-0.7-0.1-0.9-0.4l-1.9-1.9c-0.2-0.2-0.4-0.6-0.4-0.9c0-0.3,0.1-0.7,0.4-0.9L18.4,2.7
			c0.2-0.2,0.6-0.4,0.9-0.4s0.7,0.1,0.9,0.4l1.9,1.9c0.2,0.2,0.4,0.6,0.4,0.9s-0.1,0.7-0.4,0.9L6.1,22.5C5.8,22.8,5.5,22.9,5.1,22.9
			 M5.1,23.9c0.6,0,1.2-0.2,1.7-0.7L22.9,7.2c0.9-0.9,0.9-2.4,0-3.3L21,1.9c-0.5-0.5-1.1-0.7-1.7-0.7s-1.2,0.2-1.7,0.7L1.6,18
			c-0.9,0.9-0.9,2.4,0,3.3l1.9,1.9C3.9,23.7,4.5,23.9,5.1,23.9L5.1,23.9z"/>
	</g>
</g>
</svg>
