<svg xmlns="http://www.w3.org/2000/svg" viewBox="0 0 3000 1500" style="enable-background:new 0 0 3000 1500" xml:space="preserve"><path d="M0 0h750l30.9 30.9H2219L2250 0h750v1500h-750l-30.9-30.9H780.9L750 1500H0V0z" style="fill:#d52b1e"/><path d="M750 0h1500v1500H750V0zm778.1 1384.4-14.1-269.7c-.8-16.4 11.9-30.3 28.3-31 2.1-.1 4.3 0 6.4.4l268.4 47.2-36.3-100c-3-8.2-.5-17.3 6.3-22.8l294.1-238.1-66.3-30.9c-9.3-4.4-13.8-15-10.6-24.7l58.1-178.8-169.4 35.9c-9.5 2-19-3-22.8-11.9l-32.8-77.2-132.2 141.9c-7.7 8.1-20.6 8.5-28.7.8-5-4.8-7.3-11.8-6-18.6l63.8-328.8-102.2 59.1c-9.7 5.7-22.1 2.4-27.8-7.3l-.6-1.2L1500 125l-103.8 203.8c-5 10-17.2 14.1-27.3 9.1l-1.2-.6-102.2-59.1 63.8 328.8c2.1 11-5.1 21.7-16.1 23.8-6.8 1.3-13.8-.9-18.6-6l-132.2-141.9-32.8 77.2c-3.8 8.9-13.4 13.8-22.8 11.9l-169.4-35.9 58.1 178.8c3.2 9.7-1.4 20.3-10.6 24.7l-66.3 30.9 294.1 238.1c6.8 5.5 9.3 14.7 6.3 22.8l-36.3 100 268.4-47.2c16.2-2.8 31.5 8.1 34.3 24.2.4 2.1.5 4.3.4 6.4l-14.1 269.7h56.4z" style="fill:#fff"/></svg>