<svg xml:space="preserve" width="624.993" height="700" xmlns="http://www.w3.org/2000/svg"><path style="fill:#d2bc20;fill-opacity:1;fill-rule:nonzero;stroke:none;stroke-width:1.50625" d="M101.629 590.918c-14.346.028-24.781 2.97-35.918 6.11-13.145 3.705-27.341 7.706-50.637 6.943L0 603.477l11.1 10.226c4.059 3.74 7.58 8.357 11.1 12.969 6.84 8.968 13.688 17.939 25.189 22.9-2.484 5.974-5.745 11.625-9.596 17.03-5.041 7.07-11.122 13.756-17.852 20.197l-10.2 9.77 14.134-.126c23.978-.209 39.492-5.235 53.602-9.806 19.536-6.327 36.37-9.117 56.72-3.948l3.305-7.939-24.397-79.639-1.113-3.798-3.963-.221a111.851 111.851 0 0 0-6.4-.174z"/><path d="M158.906 70.433c-26.554 1.47-35.024-10.793-69.617-9.659 9.936-9.154 14.847-23.33 29.807-27.463-4.186-12.67-12.67-23.497-23.11-33.49 38.18.335 47.222 17.75 80.378 11.052l-17.458 59.56" style="fill:#000;fill-opacity:1;fill-rule:evenodd;stroke:none;stroke-width:1.12969" transform="matrix(1.33333 0 0 -1.33333 -104.152 690.604)"/><path style="fill:#d2bc20;fill-opacity:1;fill-rule:nonzero;stroke:none;stroke-width:1.50625" d="M97.775 625.965a5.606 5.606 0 0 0-4.39 8.94l-.004.001-2.072.53 35.187 44.01a5.608 5.608 0 0 0 7.844 1.163 5.572 5.572 0 0 0 1.887-2.46h.002l12.324-31.286a5.615 5.615 0 0 0-3.93-7.502l-45.178-13.175a5.596 5.596 0 0 0-1.67-.221z"/><path d="m150.606 44.025 25.758-33.152 9.243 23.464-35 9.688" style="fill:#000;fill-opacity:1;fill-rule:evenodd;stroke:none;stroke-width:1.12969" transform="matrix(1.33333 0 0 -1.33333 -104.152 690.604)"/><path style="fill:#d2bc20;fill-opacity:1;fill-rule:nonzero;stroke:none;stroke-width:1.50625" d="M523.363 590.918c-2.05-.004-4.18.05-6.402.174l-3.96.22-1.114 3.8-23.95 79.974 2.452 7.574 4.7-1.06c22.708-4.588 36.623-.08 52.427 5.037 14.109 4.571 29.623 9.597 53.601 9.806l14.139.125-10.207-9.77c-6.729-6.438-12.812-13.125-17.852-20.196-3.853-5.403-7.106-11.056-9.59-17.03 11.5-4.964 18.343-13.932 25.184-22.9 3.52-4.612 7.044-9.229 11.102-12.969l11.1-10.226-15.077.494c-23.297.763-37.49-3.238-50.635-6.944-11.137-3.14-21.572-6.081-35.918-6.109z"/><path d="M466.066 70.433c26.554 1.47 35.023-10.793 69.617-9.659-9.936-9.154-14.848-23.33-29.807-27.463 4.185-12.67 12.67-23.497 23.109-33.49-38.18.335-47.222 17.75-80.378 11.052l17.459 59.56" style="fill:#000;fill-opacity:1;fill-rule:evenodd;stroke:none;stroke-width:1.12969" transform="matrix(1.33333 0 0 -1.33333 -104.152 690.604)"/><path style="fill:#d2bc20;fill-opacity:1;fill-rule:nonzero;stroke:none;stroke-width:1.50625" d="M527.215 625.965a5.595 5.595 0 0 0-1.67.22l-45.207 13.186c-.238.057-.48.13-.715.22a5.616 5.616 0 0 0-3.185 7.272l12.324 31.285.01-.002c.369.954 1 1.81 1.88 2.463a5.606 5.606 0 0 0 7.842-1.164l34.977-44.035-.985-5.402a5.605 5.605 0 0 0-5.271-4.043z"/><path d="m473.442 44.278-24.835-33.405-9.244 23.464 34.08 9.941" style="fill:#000;fill-opacity:1;fill-rule:evenodd;stroke:none;stroke-width:1.12969" transform="matrix(1.33333 0 0 -1.33333 -104.152 690.604)"/><path style="fill:#d2bc20;fill-opacity:1;fill-rule:nonzero;stroke:none;stroke-width:1.50625" d="m63.629 0 2.289 309.998c-1.14 167.416 66.296 228.916 119.894 271.647l-66.275-25.077-5.719-2.162-22.841 80.983 5.35 1.56 214.609 62.594 1.56.457 1.559-.457 214.611-62.594 5.35-1.56-22.842-80.983-5.719 2.162-66.264 25.073c53.596-42.731 121.025-104.236 119.883-271.647L561.365 0H63.63z"/><path d="M312.486 513.736H130.067l1.686-228.264c-1.009-146.569 69.068-183.148 108.969-217.048L166.283 96.59l-14.754-52.31L312.486-2.669l160.956 46.946-14.753 52.31-74.439-28.164c39.9 33.9 109.977 70.48 108.968 217.048l1.685 228.264H312.486" style="fill:#000;fill-opacity:1;fill-rule:evenodd;stroke:none;stroke-width:1.12969" transform="matrix(1.33333 0 0 -1.33333 -104.152 690.604)"/><g><path style="fill:#d2bc20;fill-opacity:1;fill-rule:nonzero;stroke:none;stroke-width:1.12969" d="M148.846 438.816h331.465l.603-151.418v-.067C478.636 120.836 365.127 73.734 323.02 56.261c-3.59-1.488-6.663-2.765-8.787-3.734l-1.746-.797-1.746.797c-2.124.97-5.198 2.246-8.787 3.734-42.108 17.473-155.616 64.575-157.896 231.07v.067l.605 151.418h4.184" transform="matrix(1.33333 0 0 -1.33333 -104.152 690.604)"/><path style="fill:#ed1c24;fill-opacity:1;fill-rule:evenodd;stroke:none;stroke-width:1.50625" d="M245.07 111.139v472.77c29.281 16.748 54.79 25.795 67.426 31.564 12.632-5.767 38.132-14.811 67.402-31.551V111.139H245.07z"/><path d="M257.716 434.599V82.469c-48.278 28.821-107.826 85.79-109.458 204.912l.588 147.218h108.87" style="fill:#449d47;fill-opacity:1;fill-rule:evenodd;stroke:none;stroke-width:1.12969" transform="matrix(1.33333 0 0 -1.33333 -104.152 690.604)"/><path d="M367.256 82.472v352.127h108.87l.587-147.218c-1.631-119.118-61.18-176.087-109.457-204.91" style="fill:#f8d712;fill-opacity:1;fill-rule:evenodd;stroke:none;stroke-width:1.12969" transform="matrix(1.33333 0 0 -1.33333 -104.152 690.604)"/></g><g><path d="M343.446 382.9 324.263 369l7.342-22.586-19.182 13.94-19.222-13.94L300.543 369 281.4 382.9h23.681l7.342 22.574 7.301-22.573h23.722" style="fill:#d2bc20;fill-opacity:1;fill-rule:evenodd;stroke:none;stroke-width:1.12969" transform="matrix(1.33333 0 0 -1.33333 -104.152 690.604)"/><path d="M312.344 362.61v11.346l-14.058-21.087 14.058 9.741M312.344 374.073l-25.755 7.224 15.246-11.189 10.51 3.965M326.976 352.686l-5.465 16.459-9.167 4.81 14.632-21.269" style="fill:#f0d539;fill-opacity:1;fill-rule:evenodd;stroke:none;stroke-width:1.12969" transform="matrix(1.33333 0 0 -1.33333 -104.152 690.604)"/><path d="M312.344 374.073v26.211l-5.307-17.383 5.307-8.828M337.212 380.959h-17.564l-7.304-6.847 24.868 6.847" style="fill:#f0d539;fill-opacity:1;fill-rule:evenodd;stroke:none;stroke-width:1.12969" transform="matrix(1.33333 0 0 -1.33333 -104.152 690.604)"/></g><g><path d="M312.595 313.403c46.48 0 84.77-37.945 84.77-84.777s-38.294-84.433-84.77-84.433c-46.494 0-84.437 37.601-84.437 84.433 0 46.832 37.943 84.777 84.437 84.777" style="fill:#fff;fill-opacity:1;fill-rule:evenodd;stroke:none;stroke-width:1.12969" transform="matrix(1.33333 0 0 -1.33333 -104.152 690.604)"/><path d="M312.595 314.654h.005v-.005c23.581-.002 45.087-9.628 60.692-25.185 15.606-15.572 25.32-37.071 25.321-60.829h.005v-.01h-.005c-.002-23.766-9.715-45.19-25.323-60.664-15.609-15.47-37.109-25.013-60.69-25.014v-.006h-.01v.006c-23.594.001-45.014 9.544-60.534 25.014-15.517 15.481-25.14 36.898-25.143 60.65h-.005v.024h.005c0 23.755 9.626 45.257 25.14 60.828 15.52 15.557 36.943 25.184 60.529 25.186v.005zm.005-2.506v-.003h-.018v.003c-22.886-.003-43.687-9.343-58.748-24.452-15.075-15.114-24.419-35.996-24.422-59.06h.003v-.025h-.003c.003-23.055 9.343-43.849 24.413-58.87 15.07-15.034 35.871-24.292 58.765-24.292h.01c22.894 0 43.774 9.258 58.928 24.29 15.155 15.023 24.584 35.817 24.584 58.887v.01c0 23.064-9.43 43.941-24.58 59.053-15.158 15.112-36.038 24.46-58.932 24.46" style="fill:#d2bc20;fill-opacity:1;fill-rule:nonzero;stroke:none;stroke-width:1.12969" transform="matrix(1.33333 0 0 -1.33333 -104.152 690.604)"/><path d="M312.595 313.403c7.86 0 15.722-1.036 23.233-3.422l1.372-10.938c12.308-7.18 23.923-15.728 34.176-24.955l11.292 2.056c8.544-12.99 14.007-28.035 14.353-44.443l-9.907-5.125c-3.088-13.672-7.53-27.347-13.343-39.995l5.474-9.91c-9.57-12.303-22.905-21.88-37.944-27.34l-7.522 7.852c-14.354-1.022-28.024-1.022-42.035.349l-7.866-8.2c-15.036 5.458-28.028 15.036-37.94 27.34l5.127 9.569c-5.465 12.988-9.919 26.663-12.655 40.335l-10.252 5.127c.345 16.406 5.816 31.45 14.353 44.44l10.946-2.055c10.595 9.227 22.218 17.774 34.524 24.615l1.37 11.278c7.516 2.386 15.374 3.422 23.244 3.422zm-55.722-41.709 6.494-25.293 42.388-13.669-1.03-3.426-42.377 14.018-20.169-16.748a243.93 243.93 0 0 1 12.311-37.94l26.316-1.37 25.975 35.887 2.732-1.708-25.974-36.224 9.223-23.936c13.336-1.02 26.32-1.02 39.652-.335l9.57 24.27-26.319 36.225 2.733 1.708 26.323-35.888 25.977 1.372c5.129 12.307 9.23 25.287 12.314 37.94l-20.169 16.747-42.389-14.018-1.029 3.426 42.388 13.67 6.49 25.292c-10.252 8.55-20.843 16.412-32.132 23.587L314.3 280.924v-44.435h-3.078v44.435l-21.87 14.02a222.512 222.512 0 0 1-32.48-23.25" style="fill:#231f20;fill-opacity:1;fill-rule:evenodd;stroke:none;stroke-width:1.12969" transform="matrix(1.33333 0 0 -1.33333 -104.152 690.604)"/><path d="M312.595 314.654h.02v-.005c4.007-.002 7.987-.261 11.915-.823.63-.09 1.275-.196 1.92-.306a70.666 70.666 0 0 0 9.766-2.355l.763-.238.102-.795 1.289-10.324a165.886 165.886 0 0 0 4.625-2.803 188.278 188.278 0 0 0 5.06-3.258 212.219 212.219 0 0 0 23.715-18.32l10.677 1.944.811.15.456-.699.09-.139a93.187 93.187 0 0 0 3.43-5.648 94.486 94.486 0 0 0 3.04-5.888c4.824-10.24 7.742-21.468 7.995-33.42l.016-.778-10.082-5.221c-.415-1.78-.83-3.529-1.261-5.208a172.401 172.401 0 0 0-1.542-5.76c-2.72-9.634-6.134-19.129-10.23-28.129l5.175-9.364.388-.71-.5-.653-.006-.006v-.006a78.145 78.145 0 0 0-4.308-5.082 82.177 82.177 0 0 0-4.71-4.725c-8.413-7.79-18.51-13.944-29.48-17.935l-.765-.281-.573.6-7.102 7.425c-6.981-.48-13.825-.729-20.663-.688a232.01 232.01 0 0 0-20.403 1.021l-7.445-7.768-.57-.595-.766.293zm.02-2.506v-.003h-.02c-5.58 0-11.14-.525-16.57-1.682a71.51 71.51 0 0 1-3.152-.759c-.82-.217-1.611-.44-2.38-.678l-1.266-10.474-.079-.63-.556-.31c-8.797-4.89-17.242-10.66-25.225-16.929a275.864 275.864 0 0 1-4.593-3.724 199.568 199.568 0 0 1-4.486-3.81h-.005l-.45-.404-.608.112-10.118 1.893c-5.804-8.99-10.11-18.965-12.234-29.688a74.973 74.973 0 0 1-1.006-6.517 74.445 74.445 0 0 1-.43-6.084l9.535-4.764.55-.276.124-.595c1.956-9.792 4.796-19.573 8.255-29.083.66-1.828 1.358-3.67 2.084-5.53.74-1.906 1.49-3.723 2.229-5.471l.005-.008.003-.015.223-.543-.279-.521-4.73-8.842c6.936-8.444 15.357-15.558 24.913-20.859a82.105 82.105 0 0 1 5.842-2.944 80.42 80.42 0 0 1 5.35-2.23l7.297 7.623.417.435.607-.065a228.117 228.117 0 0 1 20.772-1.059c6.906-.042 13.888.21 21.059.722l.586.04.411-.429 6.95-7.267c10.375 3.892 19.897 9.756 27.872 17.139a81.041 81.041 0 0 1 4.567 4.587 77.967 77.967 0 0 1 3.667 4.29l-5.073 9.182-.302.55.269.572c4.147 9.032 7.597 18.61 10.347 28.337.534 1.865 1.038 3.77 1.53 5.684.494 1.964.95 3.864 1.366 5.711h.002l.003.009.121.58.525.268 9.219 4.765c-.353 11.276-3.164 21.902-7.752 31.627a88.12 88.12 0 0 1-2.944 5.73 95.583 95.583 0 0 1-2.985 4.947l-10.474-1.901-.601-.11-.453.408a208.895 208.895 0 0 1-23.865 18.507 186.144 186.144 0 0 1-5.006 3.216 225.234 225.234 0 0 1-5.092 3.082l-.01.008-.005.003-.533.315-.076.605-1.268 10.135a68.576 68.576 0 0 1-8.645 2.028c-.607.101-1.24.198-1.864.291a82.515 82.515 0 0 1-11.566.803zm-29.173-163.99a85.73 85.73 0 0 0-12.311 5.614c-10.08 5.587-18.934 13.133-26.167 22.116l-.512.64.384.727 4.845 9.051a291.99 291.99 0 0 0-2.02 4.985 212.137 212.137 0 0 0-2.117 5.594c-3.434 9.463-6.267 19.155-8.235 28.843l-9.706 4.86-.71.348.02.794.005.175c.049 2.352.21 4.656.46 6.913a80.236 80.236 0 0 0 1.032 6.73c2.249 11.317 6.858 21.84 13.061 31.275l.464.7.815-.151 10.339-1.941a197.823 197.823 0 0 0 4.09 3.456 218.486 218.486 0 0 0 4.641 3.757c7.897 6.217 16.265 11.949 24.993 16.836l1.297 10.65.093.797.771.243.022.003c1.113.363 2.19.672 3.237.95 1.09.286 2.187.543 3.27.78 5.618 1.208 11.361 1.75 17.092 1.75zm0 0zm-25.164 123.097 6.128-23.87 41.73-13.468 1.173-.378-.352-1.165-1.03-3.42-.366-1.243-1.224.409-41.73 13.8-19.03-15.802a246.572 246.572 0 0 1 5.176-18.39 248.71 248.71 0 0 1 6.585-17.885l24.854-1.293 25.576 35.342.686.95.988-.624 2.741-1.707 1.129-.706-.775-1.086-25.586-35.69 8.693-22.549c6.399-.477 12.692-.71 18.955-.757 6.269-.04 12.561.121 18.945.433l9.028 22.882-25.921 35.678-.789 1.082 1.142.713 2.739 1.707.983.62.68-.945 25.922-35.343 24.513 1.293a268.02 268.02 0 0 1 1.795 4.462 290.155 290.155 0 0 1 1.963 5.247 266.65 266.65 0 0 1 8.009 26.566L362.58 241.92l-41.738-13.8-1.224-.41-.361 1.244-1.032 3.42-.349 1.165 1.168.378 41.728 13.467 6.13 23.858a332.086 332.086 0 0 1-15.019 11.75 294.065 294.065 0 0 1-15.703 10.795l-20.63-13.531v-45.022h-5.58v45.01l-20.653 13.225a243.077 243.077 0 0 1-8.885-5.55 223.56 223.56 0 0 1-22.155-16.664zm3.886-25.159-6.493 25.294-.199.751.584.5A222.255 222.255 0 0 0 279.065 290a217.696 217.696 0 0 0 4.776 3.071c1.55.966 3.17 1.947 4.862 2.94l.01.003.661.4.647-.42 21.88-14.014.58-.374v-43.868h.561v43.859l.564.378 21.882 14.355.674.442.682-.436a285.419 285.419 0 0 0 16.52-11.328c5.338-3.923 10.569-8.05 15.743-12.35l.608-.509-.2-.76-6.492-25.294-.175-.677-.653-.21-41.211-13.297.296-1.008 41.174 13.613.652.211.537-.444 20.162-16.754.607-.49-.187-.761c-2.222-9.129-4.98-18.455-8.277-27.575v-.005a224.388 224.388 0 0 0-1.986-5.301c-.702-1.809-1.4-3.553-2.099-5.228l-.003-.024-.303-.723-.793-.039-25.983-1.372-.67-.035-.396.548-25.636 34.952-.61-.381 25.533-35.14.402-.556-.253-.64-9.57-24.271-.29-.755-.81-.031a339.815 339.815 0 0 0-19.891-.478c-6.647.045-13.262.301-19.92.816l-.788.052-.28.743-9.23 23.929-.251.64.395.541 25.206 35.142-.618.386-25.286-34.947-.397-.55-.678.035-26.319 1.373-.79.038-.314.723a249.932 249.932 0 0 0-6.947 18.815 246.348 246.348 0 0 0-5.411 19.331l-.18.75.599.487 20.168 16.755.532.444.654-.212 41.16-13.612.304 1.007-41.21 13.298-.655.21-.17.677" style="fill:#d2bc20;fill-opacity:1;fill-rule:nonzero;stroke:none;stroke-width:1.12969" transform="matrix(1.33333 0 0 -1.33333 -104.152 690.604)"/><path d="m341.068 238.621-10.793-32.464-34.433.306-10.783 32.107 27.976 20.241 28.033-20.19" style="fill:#231f20;fill-opacity:1;fill-rule:evenodd;stroke:none;stroke-width:1.12969" transform="matrix(1.33333 0 0 -1.33333 -104.152 690.604)"/><path d="m342.251 238.233-10.794-32.473-.288-.873-.91.014-34.427.31-.896.014-.287.84-10.775 32.102-.292.872.743.54 27.977 20.257.73.52.732-.52 28.029-20.195.749-.54zm-12.88-30.824 10.225 30.74-26.554 19.121-26.5-19.175 10.203-30.393 32.627-.293" style="fill:#d2bc20;fill-opacity:1;fill-rule:nonzero;stroke:none;stroke-width:1.12969" transform="matrix(1.33333 0 0 -1.33333 -104.152 690.604)"/></g><g><path d="m179.347 50.455 6.96 20.607 15.232-4.427-1.178-3.489-10.742 3.123-1.647-4.875 9.274-2.695-1.179-3.489-9.273 2.697-2.958-8.758-4.49 1.306M208.97 41.845l6.96 20.607 16.467-4.787-1.177-3.488-11.984 3.484-1.543-4.569 11.151-3.241-1.173-3.47-11.15 3.242-1.894-5.608 12.407-3.607-1.173-3.474-16.892 4.91M257.132 36.165l3.913-2.54c-1.427-2.056-3.098-3.404-5.02-4.046-1.913-.64-4.069-.615-6.453.079-2.948.856-5.058 2.498-6.325 4.915-1.267 2.423-1.355 5.258-.26 8.495 1.159 3.431 3.015 5.816 5.565 7.161 2.548 1.34 5.378 1.562 8.491.657 2.716-.79 4.673-2.175 5.866-4.16.716-1.173 1.044-2.66.993-4.457l-4.774.308c.101 1.144-.16 2.149-.79 3.01-.624.861-1.533 1.463-2.722 1.81-1.645.477-3.17.32-4.566-.48-1.392-.797-2.505-2.424-3.334-4.88-.88-2.605-1.006-4.608-.365-6.007.635-1.4 1.762-2.335 3.375-2.804 1.195-.347 2.338-.294 3.434.16 1.095.453 2.085 1.381 2.972 2.779M293.494 17.275l-4.882 1.42-.359 5.245-8.879 2.582-3.413-4.15-4.758 1.383 15.613 18.092 4.743-1.38zm-5.506 10.553-.48 8.538-5.582-6.776 6.062-1.762M327.619 16.202l-5.23 21.15 15.91 4.363.885-3.58-11.22-3.077 1.236-5.004 9.687 2.657.886-3.58-9.687-2.656 2.222-8.987-4.69-1.286M355.027 34.871c-.533 2.157-.628 4.06-.282 5.718a10.75 10.75 0 0 0 1.443 3.493c.703 1.101 1.546 2.01 2.529 2.722 1.309.958 2.905 1.69 4.795 2.209 3.421.939 6.393.723 8.925-.65 2.53-1.367 4.221-3.774 5.072-7.216.845-3.419.485-6.367-1.075-8.856-1.56-2.484-4.046-4.196-7.448-5.129-3.453-.946-6.435-.74-8.945.617-2.512 1.362-4.181 3.73-5.014 7.092zm4.79 1.465c.592-2.392 1.652-4.043 3.168-4.946 1.52-.903 3.213-1.096 5.082-.583 1.864.51 3.247 1.542 4.142 3.102.891 1.553 1.037 3.555.43 6.007-.599 2.423-1.629 4.07-3.087 4.949-1.462.87-3.159 1.041-5.087.512-1.936-.53-3.34-1.562-4.227-3.093-.878-1.53-1.024-3.51-.421-5.948M391.41 44.848c-.532 2.157-.628 4.06-.282 5.717a10.766 10.766 0 0 0 1.443 3.493c.703 1.103 1.546 2.012 2.53 2.723 1.308.959 2.904 1.69 4.794 2.21 3.42.937 6.393.721 8.925-.65 2.53-1.368 4.221-3.776 5.072-7.218.845-3.417.485-6.366-1.076-8.854-1.56-2.485-4.044-4.197-7.448-5.13-3.452-.947-6.434-.74-8.944.618-2.512 1.362-4.181 3.727-5.014 7.09zm4.79 1.466c.592-2.393 1.651-4.043 3.168-4.947 1.52-.903 3.212-1.096 5.082-.584 1.864.512 3.247 1.543 4.141 3.103.892 1.554 1.038 3.554.43 6.007-.598 2.423-1.628 4.07-3.085 4.949-1.462.871-3.16 1.042-5.089.513-1.934-.531-3.34-1.563-4.226-3.094-.879-1.53-1.024-3.51-.421-5.947M436.547 46.072l-4.345 17.57-6.883-1.887-.886 3.58 18.44 5.057.885-3.581-6.867-1.882 4.345-17.57-4.69-1.287" style="fill:#d2bc20;fill-opacity:1;fill-rule:nonzero;stroke:none;stroke-width:1.12969" transform="matrix(1.33333 0 0 -1.33333 -104.152 690.604)"/></g><g><path style="fill:#d2bc20;fill-opacity:1;fill-rule:nonzero;stroke:#d2bc20;stroke-width:.642794;stroke-linecap:butt;stroke-linejoin:miter;stroke-miterlimit:22.926;stroke-dasharray:none;stroke-opacity:1" d="M432.897 492.965h7.042l17.148-29.476v29.476h5.072V457.73h-7.043l-17.147 29.476V457.73h-5.072zM392.946 492.965h5.258v-21.412c0-3.77.752-6.493 2.255-8.152 1.502-1.66 3.933-2.49 7.3-2.49 3.35 0 5.773.83 7.274 2.49 1.502 1.659 2.254 4.382 2.254 8.152v21.412h5.258v-22c0-4.591-1.246-8.063-3.738-10.407-2.5-2.345-6.178-3.513-11.048-3.513-4.887 0-8.573 1.168-11.073 3.513-2.494 2.344-3.74 5.816-3.74 10.408z" transform="matrix(1.33333 0 0 -1.33333 -104.152 690.604)"/><path style="fill:#d2bc20;fill-opacity:1;fill-rule:nonzero;stroke:#d2bc20;stroke-width:.857059;stroke-linecap:butt;stroke-linejoin:miter;stroke-miterlimit:22.926;stroke-dasharray:none;stroke-opacity:1" d="M383.715 33.113c-7.248 0-13.043 2.214-17.383 6.627-4.335 4.415-6.504 10.333-6.504 17.756 0 7.432 2.169 13.351 6.504 17.754 4.34 4.404 10.135 6.605 17.383 6.605 7.236 0 13.01-2.212 17.336-6.626 4.324-4.415 6.494-10.322 6.494-17.733 0-7.423-2.17-13.34-6.494-17.756-4.326-4.413-10.1-6.627-17.336-6.627zm0 5.155c5.068 0 9.086 1.718 12.045 5.168 2.958 3.437 4.431 8.131 4.431 14.06 0 5.918-1.473 10.6-4.431 14.037-2.959 3.448-6.977 5.166-12.045 5.166-5.055 0-9.084-1.718-12.067-5.166-2.982-3.437-4.466-8.119-4.466-14.037 0-5.929 1.484-10.623 4.466-14.06 2.983-3.45 7.012-5.168 12.067-5.168zM317.912 33.96v46.983h6.975V61.082h7.59c2.77 0 4.95.517 6.54 1.547 1.603 1.021 3.252 3.115 4.962 6.262l6.587 12.052h7.495l-7.082-12.847c-1.425-2.642-2.84-4.714-4.254-6.229-1.415-1.505-2.876-2.492-4.373-2.955 2.875-.752 5.068-2.103 6.576-4.058 1.51-1.956 2.263-4.406 2.263-7.358 0-4.532-1.45-7.927-4.35-10.172-2.897-2.244-7.294-3.363-13.187-3.363h-15.742zm6.975 5.222h8.767c3.36 0 5.893.697 7.614 2.093 1.71 1.397 2.57 3.47 2.57 6.221 0 2.738-.86 4.823-2.57 6.24-1.72 1.418-4.255 2.127-7.614 2.127h-8.767V39.182z"/><path style="fill:#d2bc20;fill-opacity:1;fill-rule:nonzero;stroke:#d2bc20;stroke-width:.642794;stroke-linecap:butt;stroke-linejoin:miter;stroke-miterlimit:22.926;stroke-dasharray:none;stroke-opacity:1" d="M284.102 492.965h20.428v-4.011h-15.197V478.52h14.393v-4.011h-14.393v-12.768H305v-4.013h-20.898zM240.683 492.683h7.795l8.36-16.008 8.247 16.008h7.796v-35.236h-5.1v30.942l-8.3-16.2h-5.257l-8.468 16.2v-30.942h-5.073z" transform="matrix(1.33333 0 0 -1.33333 -104.152 690.604)"/><path style="fill:#d2bc20;fill-opacity:1;fill-rule:nonzero;stroke:#d2bc20;stroke-width:.857059;stroke-linecap:butt;stroke-linejoin:miter;stroke-miterlimit:22.926;stroke-dasharray:none;stroke-opacity:1" d="m182.094 33.96-19.68 46.983h7.354l4.7-12.052h23.227l4.705 12.052h7.246l-19.644-46.982h-7.908zm3.935 6.263 9.5 23.382h-18.96l9.46-23.382z"/><path style="fill:#d2bc20;fill-opacity:1;fill-rule:nonzero;stroke:#d2bc20;stroke-width:.642794;stroke-linecap:butt;stroke-linejoin:miter;stroke-miterlimit:22.926;stroke-dasharray:none;stroke-opacity:1" d="M193.985 490.25v-5.026c-1.76 1.498-3.642 2.61-5.63 3.351-1.997.741-4.11 1.11-6.355 1.11-4.42 0-7.805-1.232-10.154-3.695-2.343-2.458-3.52-6.018-3.52-10.675 0-4.649 1.177-8.2 3.52-10.659 2.35-2.465 5.734-3.696 10.154-3.696 2.245 0 4.358.37 6.355 1.112 1.988.74 3.87 1.852 5.63 3.352v-4.98a22.065 22.065 0 0 0-5.815-2.545c-2.043-.572-4.207-.854-6.48-.854-5.86 0-10.465 1.635-13.832 4.898-3.368 3.262-5.047 7.718-5.047 13.372 0 5.663 1.68 10.127 5.047 13.388 3.367 3.264 7.972 4.898 13.833 4.898 2.307 0 4.49-.28 6.53-.838a21.361 21.361 0 0 0 5.764-2.512z" transform="matrix(1.33333 0 0 -1.33333 -104.152 690.604)"/></g></svg>