<?xml version="1.0" encoding="utf-8"?>
<!-- Generator: Adobe Illustrator 25.0.0, SVG Export Plug-In . SVG Version: 6.00 Build 0)  -->
<svg version="1.1" id="Camada_1" xmlns="http://www.w3.org/2000/svg" xmlns:xlink="http://www.w3.org/1999/xlink" x="0px" y="0px"
	 viewBox="0 0 1600 2500" style="enable-background:new 0 0 1600 2500;" xml:space="preserve">
<style type="text/css">
	.st0{display:none;fill:#D5B048;}
	.st1{fill:#D5B048;}
	.st2{fill:#FFFFFE;}
	.st3{fill:#43A1D5;}
	.st4{fill:#173E69;}
</style>
<path class="st0" d="M-820.9,145.2c-1.1,2.3-4.7,12.6-8.1,22.7c-3.5,10.2-8.4,24.9-10.8,32.7c-2.5,7.7-5.4,16.8-6.3,20.3
	c-1,3.4-5,15.3-8.9,26.5c-3.9,11.1-8,20.8-9.4,21.6c-1.2,0.8-31.3,1.2-66.8,0.9c-35.4-0.2-65.1,0-65.6,0.4
	c-0.7,0.4,5.8,6.1,14.3,12.4c8.6,6.5,19.5,14.4,24.2,17.7c4.8,3.3,10,6.9,11.4,8.1c1.5,1.2,8.3,6.2,15.1,11.2
	c6.8,5,16.3,11.7,21.1,14.9c4.8,3.3,11.8,8.6,15.4,11.8l6.7,5.8c-5.2,15.1-10.9,32.5-16,48.6c-5.2,16-10,30.7-10.8,32.6
	c-0.9,2-4.3,12.9-7.7,24.3c-3.4,11.3-6.2,21.5-6.2,22.5s2.5-0.1,5.7-2.5c3.2-2.3,10.6-7.7,16.6-11.9c5.9-4.2,17.1-12.1,24.7-17.5
	c7.6-5.4,15-11,16.4-12.4c1.4-1.4,7.8-6.1,14.1-10.3c6.3-4.2,15.6-11.1,20.7-15.3c5.1-4.2,10.5-7.6,11.9-7.6c1.4,0,6.1,2.9,10.1,6.4
	c4.1,3.5,9,7.2,11,8.1c2,1,4,2.3,4.4,3c0.4,0.6,5.3,4.3,10.6,8.3c5.3,4,15.6,11.3,22.9,16.3c7.3,5,14.8,10.5,16.7,12.2
	c2,1.9,7,5.5,11.4,8.3c4.4,2.8,11.3,7.6,15.4,10.9c6.1,4.8,7.5,5.4,7.5,2.9c0-1.7-4-15.4-8.8-30.4c-4.8-15.1-12.8-39.7-17.6-54.7
	c-4.8-15.1-10-30.7-11.4-34.9l-2.6-7.5c14.3-10.5,34.8-25.3,54.6-39.6c19.8-14.4,40.4-29.4,45.7-33.4l9.6-7.3
	c-12.1-0.7-42.6-1.1-75.4-1.3l-59.9-0.4c-3.3-6.8-7.6-19.2-11.6-31.8c-4-12.6-12.4-38.8-18.8-58.1c-6.4-19.5-12.1-36-12.7-37
	C-818.6,141.6-820,142.8-820.9,145.2L-820.9,145.2z M-302.6,154.2c-2.5,7-5.1,15.2-5.7,18.2c-0.8,2.9-3.5,11.2-6.2,18.5
	s-9.5,27.6-15.1,45.4c-10.1,31.3-10.5,32-15.6,33c-2.9,0.6-33.8,1-68.7,1.1c-56.6,0-63.1,0.3-59.9,2.6c2,1.4,4.7,3.6,6.2,4.7
	c1.5,1.2,7,5.6,12.3,9.7c5.4,4.1,10.5,7.5,11.4,7.6c1,0,4.5,2.4,7.9,5.4c3.4,2.9,6.9,5.8,7.9,6.6c1,0.7,5.7,4,10.6,7.3
	s9.2,6.5,9.7,7c0.4,0.6,5.3,4.2,10.6,8.1c5.3,3.9,12.4,8.8,15.9,10.9c3.4,2.1,7.9,5.4,10.1,7.4c3.5,3.3,3.7,4.4,2.1,10.2
	c-1,3.6-2.3,7.8-2.9,9.2c-0.7,1.5-2.5,7.5-4.2,13.3c-1.7,5.7-4.3,14.1-5.8,18.5c-1.5,4.3-5.9,17.4-9.9,29.1
	c-3.9,11.7-7.4,23.2-7.9,25.7c-0.4,2.4-2.4,8.9-4.4,14.5c-2,5.6-3.5,10.6-3.5,11s0.6,0.9,1.3,0.9s10-6.4,20.7-14.2
	c10.7-7.7,23.3-16.7,28.2-20.1c4.8-3.3,20.3-14.4,34.3-24.8c21.4-15.7,26.1-18.6,29.1-17.2c2,1,7,4.6,11.4,8.1
	c4.4,3.5,8.7,7,9.7,7.8s4.2,3,7,4.8c2.9,1.9,10.1,6.9,16,11.3s12.9,9.6,15.6,11.6c2.8,1.9,7,5.2,9.6,7.2c2.5,2,11.8,8.6,20.5,14.5
	c8.7,6.1,16.4,11,17.2,10.9c0.8,0,1-1,0.6-2.2c-0.4-1.2-5.6-17.7-11.6-36.7c-5.9-18.8-11.6-36.3-12.6-38.8c-1-2.4-3.4-9.1-5.4-15
	c-2-5.8-3.7-11.8-4-13.3c-0.2-1.4-1-4.2-1.7-6.2c-0.8-1.9-2.1-5.3-3-7.5c-0.9-2.2-1.7-5.5-1.7-7.5c0-2.3,4-6.3,11.9-11.8
	c6.5-4.5,18.4-13.1,26.3-18.9c7.9-5.9,24.4-17.8,36.8-26.6c12.3-8.7,25.2-18.1,28.7-20.8c5.2-4,5.7-4.8,2.9-5c-2,0-32,0-66.9,0.1
	c-34.9,0-64.4-0.6-65.5-1.2c-1.1-0.8-5.9-13.2-10.8-27.7c-4.8-14.6-13.9-42.9-20.1-63.1s-12.2-36.7-13.2-36.7
	C-297.4,141.5-300.2,147.2-302.6,154.2L-302.6,154.2z"/>
<path class="st1" d="M565.8,421c-1,2.1-4.3,11.3-7.3,20.4c-3.2,9.2-7.5,22.4-9.7,29.4c-2.3,6.9-4.9,15.1-5.6,18.2
	c-0.9,3.1-4.5,13.8-8,23.9c-3.5,10-7.2,18.7-8.4,19.4c-1.1,0.7-28.1,1.1-60.1,0.8c-31.9-0.2-58.5,0-59,0.4
	c-0.6,0.4,5.2,5.4,12.9,11.2c7.7,5.8,17.5,13,21.8,15.9c4.4,3,9,6.2,10.3,7.3c1.4,1.1,7.4,5.5,13.6,10.1c6.1,4.5,14.7,10.5,19,13.4
	c4.4,3,10.6,7.7,13.9,10.6l6,5.2c-4.7,13.6-9.8,29.2-14.4,43.7c-4.7,14.4-9,27.6-9.7,29.3c-0.8,1.8-3.9,11.6-6.9,21.9
	c-3.1,10.2-5.5,19.3-5.5,20.2c0,0.9,2.3-0.1,5.1-2.3c2.9-2.1,9.5-6.9,15-10.7c5.3-3.8,15.3-10.9,22.2-15.7s13.5-9.9,14.8-11.2
	s7-5.4,12.7-9.3c5.6-3.8,14.1-10,18.6-13.8c4.6-3.8,9.4-6.8,10.7-6.8s5.4,2.6,9.1,5.7c3.7,3.2,8.1,6.4,9.9,7.3s3.6,2.1,4,2.7
	c0.4,0.5,4.8,3.9,9.5,7.4c4.8,3.6,14.1,10.2,20.6,14.7c6.5,4.5,13.3,9.4,15.1,11c1.8,1.7,6.3,5,10.3,7.4s10.2,6.8,13.9,9.8
	c5.4,4.4,6.7,4.9,6.7,2.6c0-1.5-3.6-13.9-7.9-27.3c-4.4-13.6-11.5-35.7-15.8-49.2c-4.4-13.6-9-27.6-10.3-31.4l-2.4-6.7
	c12.9-9.4,31.3-22.8,49.1-35.6c17.8-13,36.3-26.4,41.1-30l8.6-6.5c-10.9-0.6-38.3-1-67.8-1.2l-53.9-0.4c-3-6.1-6.8-17.2-10.4-28.6
	c-3.6-11.3-11.2-34.9-16.9-52.3c-5.7-17.5-10.9-32.4-11.4-33.3C567.8,417.7,566.6,418.8,565.8,421L565.8,421z M1031.9,429.1
	c-2.3,6.3-4.6,13.7-5.1,16.3c-0.7,2.6-3.2,10.1-5.5,16.6c-2.4,6.5-8.5,24.9-13.6,40.8c-9.1,28.1-9.4,28.8-14.1,29.7
	c-2.6,0.5-30.4,0.9-61.8,1c-50.9,0-56.7,0.3-53.9,2.4c1.8,1.3,4.3,3.3,5.5,4.3c1.4,1.1,6.3,5,11.1,8.7c4.9,3.7,9.4,6.7,10.3,6.8
	c0.9,0,4.1,2.2,7.1,4.9c3.1,2.6,6.2,5.2,7.1,5.9c0.9,0.6,5.1,3.6,9.5,6.5c4.4,3,8.3,5.8,8.7,6.3s4.8,3.8,9.5,7.3
	c4.8,3.5,11.2,7.9,14.3,9.8c3.1,1.9,7.1,4.9,9.1,6.6c3.2,3,3.4,4,1.9,9.2c-0.9,3.3-2.1,7-2.6,8.3c-0.6,1.4-2.3,6.7-3.8,12
	c-1.5,5.1-3.9,12.7-5.2,16.6c-1.4,3.9-5.3,15.6-8.9,26.1c-3.5,10.5-6.6,20.9-7.1,23.1c-0.4,2.2-2.2,8-4,13.1c-1.8,5-3.2,9.5-3.2,9.9
	c0,0.4,0.5,0.8,1.2,0.8c0.7,0,9-5.7,18.6-12.8c9.6-6.9,21-15.1,25.3-18.1c4.4-3,18.2-13,30.9-22.3c19.2-14.2,23.5-16.7,26.1-15.4
	c1.8,0.9,6.3,4.2,10.3,7.3c4,3.2,7.8,6.3,8.7,7c0.9,0.7,3.8,2.7,6.3,4.4c2.6,1.7,9.1,6.2,14.4,10.2c5.2,4,11.6,8.6,14.1,10.4
	c2.5,1.7,6.3,4.7,8.6,6.4c2.3,1.8,10.6,7.7,18.4,13.1c7.8,5.4,14.8,9.9,15.4,9.8c0.7,0,0.9-0.9,0.5-2c-0.4-1.1-5-15.9-10.4-33
	c-5.3-16.9-10.4-32.7-11.3-34.9c-0.9-2.2-3.1-8.2-4.9-13.5s-3.4-10.6-3.6-12c-0.2-1.3-0.9-3.8-1.5-5.5c-0.7-1.7-1.9-4.8-2.7-6.7
	c-0.8-2-1.5-5-1.5-6.7c0-2.1,3.6-5.6,10.7-10.6c5.8-4.1,16.5-11.8,23.7-17c7.1-5.3,22-16,33.1-24c11.1-7.8,22.7-16.2,25.8-18.7
	c4.7-3.6,5.1-4.4,2.6-4.5c-1.8,0-28.8,0-60.2,0.1c-31.4,0-57.9-0.5-58.9-1.1c-1-0.7-5.3-11.9-9.7-25c-4.4-13.2-12.5-38.6-18.1-56.7
	c-5.6-18.1-11-33-11.9-33S1034.1,422.8,1031.9,429.1L1031.9,429.1z"/>
<path class="st2" d="M465.3,515.9c4,0.3,9.6,0.3,12.7,0c3.1-0.4-0.2-0.7-7.1-0.7S461.3,515.5,465.3,515.9L465.3,515.9z M508,515.9
	c4,0.3,9.6,0.3,12.7,0c3.1-0.4-0.2-0.7-7.1-0.7S504.1,515.5,508,515.9L508,515.9z M655.4,515.9c4,0.3,9.6,0.3,12.7,0
	c3.1-0.4-0.2-0.7-7.1-0.7C654,515.2,651.4,515.5,655.4,515.9L655.4,515.9z M697.3,515.9c3.5,0.3,9.5,0.3,13.5,0
	c4-0.4,1.1-0.6-6.3-0.6S693.9,515.5,697.3,515.9z M885.1,515.9c4.8,0.3,11.9,0.3,15.8,0c4-0.4,0-0.6-8.7-0.6
	C883.5,515.3,880.3,515.6,885.1,515.9z M938.1,515.9c3.5,0.3,9.5,0.3,13.5,0c4-0.4,1.1-0.6-6.3-0.6S934.7,515.5,938.1,515.9z
	 M1128.3,515.9c3.5,0.3,9.5,0.3,13.5,0c4-0.4,1.1-0.6-6.3-0.6S1124.8,515.5,1128.3,515.9z"/>
<path class="st1" d="M377.9,858.5l0.2,45l-141.8,0.8c0.1,93.5,0.6,121.5,1.3,122.6c0.8,1.5,11.2,2,43.5,2h42.4l-0.8,31.8l-86.2,0.8
	c-0.1,101.3,0.5,123,1.5,123.2c0.9,0.1,29,0.3,62.6,0.5c33.6,0.2,64.8,0.5,69.3,0.6l8.3,0.3c0,616.5,0.5,731.2,1.8,745.4
	c1,11.1,3.5,27,5.5,35.2c2.1,8.3,6.5,20.5,9.9,27c3.4,6.5,8,14.8,10.4,18.2c2.3,3.5,9,11.7,14.9,18.1c5.8,6.4,16.3,16,23.3,21.3
	c6.9,5.2,19.1,12.6,26.9,16.3c8.6,4.2,21.1,8.4,31.7,10.9c9.6,2.2,26.3,4.8,37.2,5.6c10.9,0.8,41.6,2.2,68.1,3.1
	c34.5,1.1,53.1,2.4,65,4.5c9.1,1.7,24.9,5.6,34.9,8.9c10.3,3.3,24.6,9.4,32.8,14.1c8.1,4.6,20.5,13,27.6,18.6
	c7.1,5.6,17.2,15.3,22.4,21.4c5.1,6.1,11.6,15.2,14.4,20.3c2.8,5,5.5,9.1,6.2,9.1c0.7,0,1.2-0.7,1.2-1.6s4.2-7.8,9.3-15.4
	c5.9-9,14.3-18.5,23.4-26.7c7.7-7,20.5-16.7,28.3-21.6c7.8-4.8,21.8-11.7,30.9-15.2c9.1-3.6,23.8-7.9,32.5-9.6
	c8.7-1.8,21.9-4,29.3-5c7.4-0.9,32-2,54.7-2.5c22.7-0.4,46.9-1.2,53.9-1.6c6.9-0.5,19.4-1.9,27.7-3.1c8.3-1.3,21.8-4.6,30.1-7.3
	c8.3-2.8,17.5-6.2,20.6-7.8c3.1-1.6,11.3-6.5,18.2-11.2c6.9-4.6,17.7-13.5,23.9-19.6c6.1-6.2,14.9-16.6,19.2-23.2
	c4.4-6.5,9-14.1,10.3-16.6c1.3-2.7,4.6-11.2,7.3-19c2.7-7.9,5.6-19,6.6-24.7c1-5.6,2.4-20.7,3-33.3c0.6-12.7,1.1-182.8,1.1-378
	c-0.1-353.7-0.1-355,3.1-355.7c1.8-0.4,32.8-0.5,68.9-0.3c36.1,0.2,66.4,0.1,67.3-0.2c1-0.4,1.5-22.3,1.2-62.4l-0.4-61.9H1297v-31.8
	c63.3,0,82.5-0.6,83.5-1.2c1.4-0.9,2-17,2.2-62.3l0.3-61.1l-140.6-0.8c0.4-54.8,0.2-74.9-0.3-80.1l-0.8-9.5l-863.6-0.4L377.9,858.5z
	"/>
<path class="st2" d="M676,814.1c3.1,0.4,8.4,0.4,11.9,0c3.5-0.3,1-0.6-5.5-0.6S672.9,813.8,676,814.1z M1242,859
	c0,6.6,0.3,9.4,0.7,6.4c0.3-3.1,0.3-8.4,0-12C1242.3,850,1242,852.4,1242,859L1242,859z M236,931.3c0.1,6.9,0.3,9.4,0.7,5.5
	c0.3-4,0.3-9.7,0-12.7C236.3,921.1,236,924.2,236,931.3L236,931.3z"/>
<path class="st3" d="M268,933c-0.7,0.6-1.2,16.3-1.1,35l0.3,33.9l1086.9-0.8c0.6-59.5,0.2-67.6-1.3-68.2
	c-1.1-0.5-245.4-0.8-542.7-0.8C512.7,932,268.7,932.4,268,933L268,933z"/>
<path class="st2" d="M1383.1,954.2c0,7.4,0.2,10.3,0.6,6.3c0.3-4,0.3-10,0-13.5C1383.3,943.6,1383.1,946.8,1383.1,954.2z
	 M236.1,979.6c0,7.4,0.2,10.3,0.6,6.4c0.3-4,0.3-10,0-13.6C236.3,969,236.1,972.2,236.1,979.6L236.1,979.6z M1383.1,1005
	c0,7.4,0.2,10.3,0.6,6.3c0.3-4,0.3-10,0-13.5C1383.3,994.3,1383.1,997.6,1383.1,1005z M355.9,1045.4v43.7l904.9-0.8l-0.3-85.6
	l-904.6-0.8V1045.4z M236,1074.8c0,6.5,0.3,9.4,0.7,6.3c0.3-3.1,0.3-8.4,0-11.9C236.3,1065.8,236,1068.3,236,1074.8z M1383.1,1096.2
	c0,7.9,0.2,11.5,0.6,7.9c0.3-3.5,0.3-9.9,0-14.3C1383.3,1085.5,1383.1,1088.4,1383.1,1096.2z"/>
<path class="st3" d="M268,1090.2c-0.7,0.6-1.2,16.2-1.1,34.9l0.3,33.9H1354c0.7-54.8,0.2-67.8-0.8-68.6
	c-0.9-0.6-245.1-1.1-542.7-1.2C512.9,1089.1,268.7,1089.6,268,1090.2L268,1090.2z"/>
<path class="st2" d="M236,1121.7c0.1,6.9,0.3,9.4,0.7,5.5c0.3-4,0.3-9.7,0-12.7C236.3,1111.5,236,1114.6,236,1121.7z M1383.1,1144.6
	c0,7.4,0.2,10.3,0.6,6.3c0.3-3.9,0.3-10,0-13.5C1383.3,1134,1383.1,1137.2,1383.1,1144.6z M236.1,1170.1c0,7.3,0.2,10.2,0.6,6.3
	c0.3-4,0.3-10,0-13.6C236.3,1159.4,236.1,1162.7,236.1,1170.1z M250.6,1185.4c2.6,0.4,7.6,0.4,11.1,0c3.5-0.3,1.4-0.6-4.8-0.6
	C250.8,1184.8,248,1185.1,250.6,1185.4z M297.3,1185.4c4,0.4,9.6,0.4,12.7,0c3.1-0.3-0.2-0.6-7.1-0.6
	C295.9,1184.8,293.4,1185.1,297.3,1185.4L297.3,1185.4z M344.9,1185.4c4,0.4,9.6,0.4,12.7,0c3.1-0.3-0.2-0.6-7.1-0.6
	S340.9,1185.1,344.9,1185.4L344.9,1185.4z M1295.4,1185.4c4,0.4,9.6,0.4,12.7,0c3.1-0.3-0.2-0.6-7.1-0.6
	C1294,1184.8,1291.4,1185.1,1295.4,1185.4z M1342.9,1185.4c4,0.4,9.6,0.4,12.7,0c3.1-0.3-0.2-0.6-7.1-0.6
	C1341.5,1184.8,1339,1185.1,1342.9,1185.4z"/>
<path class="st4" d="M560.3,1213.6c0,1.3,4,10.1,8.8,19.5c4.9,9.3,12.2,21.7,16.2,27.3s9.5,12.7,12.1,15.6c2.7,3,9,9.4,14.1,14.3
	c5.1,5,13.4,12,18.2,15.6c5,3.7,14.4,9.3,20.9,12.6c6.5,3.2,16.8,7.5,23,9.6c6.1,2.1,19.3,5.8,29.3,8.4c10,2.6,24.7,5.7,32.5,7
	c7.8,1.4,17.1,2.5,20.6,2.6c3.5,0,7.2,0.5,8.3,1.2c1.5,0.9,1.9,49.9,1.6,229.4l-0.4,228.2c-25.7,9.2-36.4,13.5-40.4,15.5
	c-4,2-10.7,6.2-15.1,9.5c-4.4,3.2-10,8.3-12.5,11.3c-2.6,3-5.9,8.2-7.5,11.8c-1.6,3.5-2.9,9-3,12.3c0,4.3,1.1,7,4,9.9
	c3.3,3.3,5,3.8,9.9,3c3.3-0.5,10.9-3.6,16.8-6.7c6-3.2,12.5-6.6,14.3-7.7c1.9-1.1,7.6-2.7,12.9-3.6c5.2-0.9,14.9-1.6,21.4-1.6
	c6.5-0.1,17.2,1.3,23.8,3c6.5,1.6,15.8,5,20.6,7.3c5.7,2.9,13.9,9.7,23.8,19.8c11.5,11.7,17.7,16.7,26.5,21.2
	c6.3,3.2,17,7.2,23.8,8.9c8.2,2.2,17.5,3.2,28.1,3.2c8.7,0,19.4-0.9,23.8-2.1s11.1-3.8,15.1-5.7c4-2.1,10.7-6.3,15.1-9.6
	c4.4-3.2,9.9-8.6,12.4-12c2.9-4.1,4.6-8.5,4.8-12.8c0.2-3.6-0.8-8.4-2.1-10.9c-1.3-2.4-4.4-5.3-6.7-6.5c-2.4-1.2-6.5-2.2-9.1-2.2
	c-2.6,0-11.4,1.9-19.4,4.2c-10.6,3-16.8,4-22.6,3.4c-4.4-0.5-12.2-3-17.4-5.6c-5.2-2.6-18.4-11.4-29.3-19.4
	c-11.1-8.2-26-17.7-34.1-21.5c-7.8-3.7-19.1-8.2-25-10.1l-10.7-3.3v-231.7h63.4v63.5h45.9v-182.5l-45.2,0.8l-0.8,59.5h-63.4
	l-0.1-172.2c14.2-3.3,27.7-7.8,39.3-12.1c11.6-4.3,26.5-9.1,33.3-10.9c6.7-1.7,18.7-3.8,26.5-4.7c8.5-0.8,19.4-0.9,26.9,0
	c6.9,0.8,16.9,2.9,22.2,4.7c5.2,1.8,13.1,5.3,17.4,7.8c4.4,2.4,13.7,8.7,20.6,14c6.9,5.2,19.4,13.8,27.7,19c8.3,5.1,19,11,23.8,13.1
	c4.8,2,12.3,4,16.6,4.4c5,0.5,10-0.1,13.5-1.6c3.1-1.3,7.5-4.6,9.9-7.2c2.4-2.8,4.9-7.6,5.3-10.9c0.6-3.3,0.6-14.2,0.1-24.3
	c-0.5-10-2.3-23.3-4-29.3c-1.6-6.1-4.9-14.8-7.1-19.1c-2.2-4.4-7.1-11.8-11-16.6c-3.8-4.8-11.9-12.5-17.9-17
	c-6-4.6-15.9-10.4-22.1-13s-15.3-5.8-20.6-7.2c-5.2-1.4-15.9-3.3-23.8-4.2c-10.4-1.3-19.2-1.3-32.5,0c-10,1-22.2,2.8-26.9,3.9
	c-4.8,1.2-21.2,6.1-36.4,11s-35.2,10.3-44.4,12.1s-24.2,4.1-33.3,5s-31.8,1.6-50.3,1.6c-20.6,0-40.9-0.9-52.3-2.4
	c-10.2-1.3-25.7-3.9-34.5-5.7c-8.7-1.8-24.1-5.7-34.1-8.8c-10-3.1-25.7-8.7-34.9-12.8c-9.1-4-20.6-9.4-25.3-12.1
	c-4.8-2.6-10.7-6.1-13.1-7.7c-2.4-1.6-4.8-2.9-5.1-2.9S560.3,1212.4,560.3,1213.6L560.3,1213.6z"/>
<path class="st2" d="M1242,1239.9c0,6.5,0.3,9.4,0.7,6.3c0.3-3.1,0.3-8.4,0-11.9C1242.3,1230.8,1242,1233.3,1242,1239.9z"/>
<path class="st1" d="M244.8,1329.1c-2.3,3.8-7.5,16.7-11.6,29c-4.2,12.2-8.8,28.2-10.5,35.6c-1.8,7.4-4,17.4-5,22.2l-2,8.8
	c-5.7-17.2-10.7-28.4-14.8-35.9c-4.1-7.5-10.4-17-14.1-21c-3.7-4.1-7.1-7.2-7.5-6.9c-0.4,0.2-1.6,5-2.7,10.7
	c-1.5,8.3-1.3,15.4,0.9,37.2c1.4,14.9,3.6,30.2,4.8,34.2c1.2,4,2.7,11.1,3.4,15.8c0.6,4.9,2.2,12.7,3.5,17.4
	c1.2,4.9,3.6,13.8,5.2,19.9c1.6,6,5.7,19.7,9.2,30.1c3.5,10.5,7.2,21.2,8.3,23.9c1,2.6,5,11.2,8.8,19c3.9,7.8,9.3,17.3,12.1,21.1
	l5.1,6.9c-3.1,20.1-7.1,35.9-10.9,48.1c-3.8,12.3-8.1,27.6-9.6,34.2c-1.5,6.5-3.5,14.4-4.4,17.4l-1.7,5.5
	c-7.9-19.7-12.3-29.4-14.8-34.3c-2.6-4.9-7.8-12.9-11.8-17.8c-4-5-8-9-9.1-9c-1.2,0-2.4,3.1-3,7.5c-0.6,4.2-0.6,15.7-0.1,25.8
	c0.6,10,1.7,24,2.6,30.9c0.9,7,3.1,19.1,5,27c1.9,7.8,3.7,16.7,4.1,19.8c0.4,3.1,3.6,15.1,7.1,26.9c3.7,11.8,9.3,29.5,12.7,39.3
	c3.4,9.8,9.1,23.8,12.8,30.9c3.6,7.2,8.9,16.3,11.8,20.3l5.1,7.1c-2.5,18.4-2.7,32-2.2,42.1c0.6,10,1.3,21.4,1.8,25.3
	c0.4,4,1.5,12.5,2.3,19c0.9,6.5,1.9,13.6,2.4,15.5c0.4,1.9,0.2,3.5-0.5,3.5s-3.7-3.4-6.7-7.4c-3.1-4.1-10.5-12.3-16.6-18.2
	c-6.1-5.9-11.6-10.8-12.3-10.8c-0.7,0-2.1-0.9-3.2-2.1c-1.1-1.1-5.3-4-9.5-6.3l-7.5-4.3c-0.1,9.2,0.9,14.8,2.2,18.2
	c1.2,3.5,4.4,11.2,7.1,17c2.7,5.9,5,11.1,5,11.6c0,0.4,5.1,10.2,11.5,21.8c6.2,11.6,12.2,21.8,13.2,22.6c1,0.9,6.1,8.9,11.5,17.9
	c5.4,8.9,10.5,16.2,11.4,16.2s1.6,0.9,1.7,2c0,1.1,2.7,5.5,5.9,9.9c3.2,4.4,8.5,11.1,11.9,15.1c3.3,4,7.4,8.9,9.2,11.1
	c1.8,2.3,10.1,11.1,18.5,19.7s17.1,16.5,19.3,17.6c2.2,1.2,10.4,9,18.2,17.6c7.8,8.5,19.2,19.1,25.3,23.7s13.5,9.2,16.3,10.4
	c2.9,1.3,5.1,2.8,5.1,3.5c-0.1,0.7,1.2,1.6,2.7,2c1.5,0.5,4.2,1.8,5.9,2.8c1.8,1.1,6.3,4.4,10.3,7.2s8.4,5.1,9.9,5.1
	c1.5-0.1,2.8,0.5,2.8,1.1c-0.1,0.7,3.9,3,8.6,5.1c4.8,2.2,8.3,4.6,7.9,5.1c-0.4,0.7-11.6,1.1-24.9,0.9c-14.1-0.2-27.9,0.5-33.3,1.6
	c-6.2,1.4-9.6,2.9-10.7,5.1c-0.9,1.7-1.6,3.3-1.6,3.6c-0.1,0.2,1.2,1.8,2.8,3.6c1.5,1.7,4.3,4,5.9,5c1.8,1,6,2.3,9.5,2.9
	c3.5,0.6,9,2.2,12.3,3.4c3.3,1.3,7.9,2.3,10.3,2.3c2.4,0,8.8,1.5,14.3,3.2c5.4,1.8,13.5,3.2,17.8,3.2c4.4,0,8.3,0.7,8.7,1.6
	c0.4,0.9,3.9,1.6,7.5,1.6s10.7,0.7,15.4,1.5c4.8,0.9,12.7,2,17.4,2.5c4.8,0.5,21.6,1.6,37.2,2.5c15.6,0.8,35,1,42.8,0.4
	c7.8-0.6,15-1.2,15.8-1.3s4.1-0.7,7.1-1.3c3.1-0.6,9.6-1.5,14.7-1.9c6.6-0.6,9.4-0.2,10.3,1.4c0.7,1.2,3,2.5,5.1,3
	c2.2,0.4,14,3.5,26.1,6.7c12.2,3.3,23.1,6.7,24.3,7.7c1.1,1,1.5,2.3,0.8,2.9s-4.5,2.8-8.4,5c-4,2.2-11.8,6.4-17.4,9.4
	s-13.5,7.5-17.4,10s-10.6,7.4-14.8,11c-4.3,3.6-9,8.9-10.8,12c-1.7,3.1-2.7,5.9-2.1,6.3c0.5,0.5,10.7,1.1,22.6,1.4
	c12,0.3,28.8-0.4,37.5-1.4c8.7-1.1,22.6-4,30.9-6.4c8.3-2.5,23.8-8,34.4-12.2c10.7-4.2,19.4-7,19.4-6.3c0.1,0.7-0.5,1.4-1.1,1.6
	c-0.7,0.2-5.6,5.7-10.9,12.3c-5.3,6.5-14.1,18.7-19.4,27c-7.5,11.6-9.7,16.3-9.7,21v5.9h34.1c4.3-14.2,8.2-23.6,11.5-30.1
	c3.4-6.6,10.1-18,15-25.4c5-7.4,13.1-18,18.2-23.6c5-5.6,11.2-11.2,13.6-12.4c2.9-1.4,10.2-2.2,21.8-2.2s18.9,0.8,21.8,2.2
	c2.4,1.2,8.5,6.7,13.6,12.4c5,5.5,13.4,16.1,18.3,23.6c5,7.4,12.1,19.6,15.5,27c3.5,7.3,7.3,16.8,8.5,21l2.3,7.5h34.1
	c0-8.6-1.3-13.8-3-17c-1.6-3.3-5.7-9.8-9.1-14.6c-3.4-4.7-10.2-13.6-15.1-19.8c-5-6.2-10.1-12.6-11.5-14.1c-1.4-1.5-2.5-3.2-2.5-3.6
	c0-0.5,8.7,2.9,19.4,7.3c10.7,4.6,23,9.2,27.3,10.5c4.4,1.3,11.5,3.3,15.8,4.6c4.4,1.2,12.6,2.8,18.2,3.4c5.6,0.7,22.2,1.2,36.7,1.2
	c14.5,0,26.8-0.5,27.3-1.2c0.5-0.6-0.3-3.2-1.8-5.5c-1.5-2.4-5.9-7.7-9.9-11.9c-4-4.2-7.7-7.5-8.4-7.5c-0.7,0-4.6-2.3-8.7-5
	c-4.2-2.8-14-8.2-21.8-12.1c-7.8-4-15.8-8.5-17.8-10.2c-2.7-2.2-3.1-3.3-1.6-4.4c1.1-0.9,4.9-2.2,8.3-3.1s10.6-2.8,15.8-4.2
	c5.2-1.5,16.2-4.4,24.6-6.4c12.9-3.3,16.5-3.7,25.3-2.4c5.6,0.8,19.6,1.9,30.9,2.5c11.3,0.5,32,0.2,45.9-0.7
	c14-0.9,32.1-2.4,40.4-3.3c8.3-0.9,21.8-2.8,30.1-4.2c8.3-1.4,23.6-4.2,34.1-6.2s22.2-4.9,26.1-6c4-1.2,13-4.5,20.2-7.2
	c8-3.1,12.9-5.7,12.6-6.9c-0.3-1.1-6.2-3.7-13.1-5.6c-9.7-2.8-18.3-3.9-37.9-4.6c-24.8-1-25.2-1.1-20.2-3.6
	c2.9-1.4,13.6-7.5,23.7-13.7c10.2-6.1,19.2-11.9,20.2-12.8c0.9-1,4.8-3.7,8.4-5.9c3.7-2.4,12.3-9.1,19-15.1
	c6.7-5.9,15.1-14.5,18.6-18.9c3.5-4.5,9.2-10,12.7-12.2c3.5-2.3,13.5-11.5,22.2-20.4c8.7-9,19.5-20.6,24-25.8
	c4.5-5.2,10.4-13.1,13.4-17.4c3-4.4,8-11.5,11.3-15.8c3.4-4.4,6.9-9,8-10.3c1-1.4,2.7-3.9,3.6-5.5c0.9-1.8,4.2-7.1,7.3-12
	c3.1-4.8,9.2-15.1,13.5-23s8.5-16,9.5-18.2c1-2.2,4.7-10.1,8.1-17.5c3.5-7.3,7.2-16.3,8.2-19.8c1.1-3.5,1.7-8.6,1.4-11.4l-0.5-5
	c-15.1,9.1-21.9,13.9-24.8,16.5c-3,2.7-9.3,9.1-14.1,14.3c-4.9,5.2-10.4,11.6-12.4,14.3c-1.9,2.6-3.9,4.4-4.2,4
	c-0.4-0.5,0.3-7.2,1.5-15.1c1.2-7.8,2.6-18.1,3-23c0.5-4.8,1.3-16.5,1.8-26.1c0.6-9.6,0.3-22.9-0.6-29.4c-1.5-11.4-1.4-12.1,2.3-17
	c2.1-2.9,3.9-5.5,3.9-5.9c0-0.5,3-6,6.6-12.3c3.6-6.3,9.7-19.4,13.6-29c3.9-9.6,7.5-20.3,8.2-23.8c0.8-3.6,3.9-14.6,6.8-24.7
	c3.1-10,6.7-24.3,8.1-31.7c1.5-7.4,3.8-18.9,5-25.4c1.4-6.5,3.1-15.7,3.8-20.6c0.8-4.8,1.4-18.7,1.5-30.9c0-12.3-0.5-23.5-1.1-25
	c-0.6-1.5-1.9-2.3-2.9-1.6c-0.9,0.6-4.9,5-8.8,9.8c-3.9,4.9-8.2,10.5-9.7,12.7c-1.4,2.3-5.7,11.9-9.6,21.5l-7,17.4
	c-2.7-9.8-5.1-19.1-7.2-26.9c-2.1-7.9-4.4-17.1-5-20.7c-0.6-3.5-3.2-11.7-5.6-18.2c-2.6-6.5-5.4-18.1-6.6-25.6l-2-13.8
	c7.6-10.7,13.9-22,18.7-32c5-10,10.8-23.6,13-30.2c2.3-6.5,6.1-19,8.6-27.7s5.9-21.6,7.7-28.5c1.8-7,4.5-19.2,5.9-27
	c1.5-7.8,3.4-18.2,4.1-23c0.8-4.9,2.1-13.4,3-19.1c0.9-5.6,1.7-11,1.7-11.9s-0.4-9.1-0.9-18.2c-0.5-9.2-1.6-17.4-2.3-18.2
	c-0.9-1-3.7,1-7.5,5.2c-3.3,3.9-8.1,9.9-10.6,13.6c-2.5,3.6-6,10.1-8,14.5c-2,4.4-5.2,13-7.2,19l-3.8,11.2
	c-5.3-23.4-9.1-38-11.8-47.6c-2.7-9.6-7.1-23.6-9.8-31c-2.7-7.4-6-15.5-7.5-18.1c-1.6-2.5-3.5-4.9-4.4-5.1c-0.9-0.3-2.9,2.1-4.6,5.4
	c-1.6,3.3-5.2,12-8.1,19.4c-3.4,8.7-7,23.5-10.2,41.3c-2.7,15.2-5.2,29.4-5.6,31.4c-0.5,1.9-1.5,3.6-2.4,3.6
	c-0.9,0-5.1-8.4-9.6-18.7c-4.5-10.2-8.5-19-9.2-19.4c-0.6-0.4-3.4-4.4-6.2-8.7c-2.8-4.4-6.6-9.8-8.6-12c-2-2.2-4.9-4.6-6.3-5.1
	c-2.4-1-2.8-0.2-2.8,4.9c0,3.3,0.7,14,1.6,23.8c0.9,9.8,3.8,30.7,6.3,46.4c2.6,15.6,5.3,30.1,6.1,32.1c0.8,2,2.6,8.6,4.1,14.8
	c1.4,6,4,15.7,5.7,21.4c1.8,5.6,4.4,13.9,5.7,18.2c1.4,4.4,3.8,10.5,5.3,13.5c1.6,3.1,5.5,11.3,8.8,18.3c3.3,6.9,8.6,17.1,12,22.6
	c3.3,5.4,6,10.6,6,11.5c0,0.9,0.5,1.6,1.2,1.6c0.7,0,1.8,8,2.4,17.8c1.2,17.2,1.1,18.4-3.5,32.2c-2.6,7.8-6.5,24-8.7,35.7
	c-2.2,11.8-4.1,23.7-4.1,26.5c0,2.9-0.5,5.1-1.2,5.2c-0.7,0-3.6-5.5-6.5-12.3c-3-6.8-6.8-15.6-8.6-19.5c-1.8-4-5.3-10.4-7.9-14.4
	c-2.6-3.9-7.6-10.1-11.2-13.9c-3.6-3.8-7.6-6.7-8.9-6.7c-2,0-2.2,1.6-1.2,9.9c0.7,5.4,1.9,17.8,2.8,27.4c0.9,9.6,2.3,20.6,3.1,24.6
	c0.8,4,2.3,12.2,3.3,18.2c1,6.1,3.7,18.6,5.8,27.8c2.2,9.1,4.4,18.4,4.8,20.6c0.4,2.2,1.4,5.4,2.1,7.1c0.7,1.8,2.9,7.8,4.7,13.6
	c1.8,5.6,3.3,11.5,3.3,13.1c0,1.5,0.7,2.8,1.6,2.8c0.9,0,1.6,1.1,1.6,2.4s2.5,7.5,5.4,13.9c3,6.3,5.7,13,6.2,14.7
	c0.5,1.8,5.6,10.7,11.3,19.9c9.9,15.9,10.3,17,10.4,26.9c0,9.2-0.6,11.2-5.4,18.2c-3.1,4.4-7.9,11.6-11,15.9
	c-3,4.4-10.5,16.6-16.7,27.3s-11.8,19.4-12.5,19.4s-1.7-9.8-2.4-21.8c-0.6-12-1.7-22.2-2.4-22.6c-0.7-0.5-2.1-4.1-3.1-8
	c-1-3.9-3.4-10.5-5.1-14.7c-1.8-4.2-4-7.5-4.9-7.5c-0.9,0-2,2-2.5,4.4c-0.5,2.4-2.3,9-4,14.7c-1.7,5.7-5.2,19.6-7.9,31
	c-2.7,11.4-5.6,26.3-6.4,33.3c-0.9,7-2.3,16.3-3.2,20.7c-0.8,4.4-2.2,19-3.1,32.5c-0.9,15.3-1,33.7-0.1,48.4
	c0.9,14.7,2.9,30,5.1,39.9l3.8,16c-9.8,9.8-14.2,14.4-16,16.4c-2.9,3.3-5.2,4-18.2,5c-8.1,0.6-25.1,3.1-37.8,5.3
	c-12.7,2.3-26.1,4.5-30.1,4.9l-7.1,0.8c6.1-5.3,10.1-8.7,12.7-11c2.6-2.3,9-8,14.3-12.9c5.2-4.8,11.7-11.5,14.3-15
	c2.6-3.5,6.3-8.8,8.2-12c1.9-3.2,3.5-7,3.6-8.5c0-1.6-0.3-2.8-0.7-2.8c-0.4,0-10.2,4.2-21.8,9.4c-11.6,5.1-23.2,10.4-25.7,11.5
	c-15.1,7.2-29.9,14.8-44.6,22.9c-2.7,1.7-9.8,5.8-15.8,9.3c-5.9,3.6-14.9,9.2-19.6,12.8c-4.8,3.5-10.9,7.7-13.5,9.4
	c-2.6,1.6-10.4,7.3-17.3,12.7c-6.8,5.2-19,15.8-26.9,23.4c-7.9,7.5-16.5,16.6-19.1,20.2s-6,6.4-7.5,6.4c-1.5,0.1-9.4-2.5-17.4-5.6
	c-8-3.2-15.1-6-15.8-6.3c-0.7-0.4,0.6-2.6,2.8-5c2.2-2.4,7.6-8.9,12.1-14.7c4.6-5.6,10.2-14.8,12.7-20.2c2.5-5.4,5.2-12.8,6.1-16.2
	c1.1-4.3,1.1-6.6,0-7.1c-0.9-0.5-12.1,2.1-25,5.5c-12.9,3.5-29.4,8.2-36.8,10.4c-7.4,2.3-21,6.2-30.1,8.8
	c-9.1,2.7-23.4,8.1-31.7,12.2c-12.4,6.1-17.4,9.9-28.6,20.9c-7.4,7.4-16.7,17.7-20.6,22.8l-7,9.1h-45.9
	c-8.6-11.1-17.9-21.7-27.8-31.6c-12.9-12.7-17.1-15.7-30-21.9c-8.3-4-21.5-9-29.3-11.2c-7.8-2.2-25.6-7.4-39.6-11.6
	c-14-4.3-31.2-9.1-38.4-11c-7.2-1.8-13.5-3.3-13.9-3.3s-0.8,1.2-0.8,2.8c0,1.5,1.3,7,2.9,12.3c1.7,5.2,4,11.3,5,13.5
	c1.2,2.2,7.1,10.6,13.4,18.7c6.1,8.1,11.9,14.8,12.7,14.7c1,0,1,0.5,0,1.5c-0.8,0.9-8.2,4.2-16.5,7.2c-8.3,3.1-16.1,5.5-17.4,5.6
	c-1.3,0-4.2-1.7-6.4-3.7c-2.2-2-4.9-5.5-5.9-7.9c-1-2.5-4.4-6-7.4-8c-3-1.9-5.5-4.3-5.4-5.1c0-0.8-4.5-5.6-10-10.7
	c-5.4-5-12.8-11.1-16.3-13.5c-3.6-2.4-9.6-6.8-13.5-9.9s-8.2-6.2-9.7-7.1c-1.5-0.9-5.4-3.5-8.7-5.7c-9.8-6.6-19.7-13-29.8-19
	c-3.5-2-14.6-8-24.6-13.4c-10-5.4-20.7-10.9-23.8-12.3s-14.9-6.5-26.1-11.4c-11.3-5-21.5-8.9-22.6-8.9c-1.1,0-2,0.2-2,0.5
	c-0.1,0.2,1,3.1,2.4,6.3c1.3,3.3,6,10.4,10.6,15.8s12.2,13.7,17,18.2c4.9,4.6,10.2,8.8,12,9.4s5.8,3.1,9.1,5.5
	c4.4,3.3,5.2,4.8,3.6,5.3c-1.3,0.4-4,0.8-5.9,0.8s-6.4-1-9.9-2.2c-3.5-1.2-11-2.7-16.6-3.2c-5.6-0.6-14.3-2.1-19-3.5
	c-4.8-1.3-15.7-2.9-24.4-3.6l-15.6-1.2c-14.5-14.8-18.6-20.1-18.6-21.4c0.1-1.3,0.8-5.2,1.7-8.7c1-3.5,3-16,4.5-27.8
	c1.6-12.5,2.7-30.6,2.6-43.6c-0.1-12.3-1.1-31.2-2.2-42.1c-1.1-10.9-2.7-22-3.5-24.6c-0.8-2.7-1.5-6.9-1.5-9.6c0-2.6-1-9.3-2.2-15.1
	c-1.2-5.6-3.4-14.6-4.8-19.8c-1.4-5.2-3.3-13.5-4.2-18.2c-0.9-4.9-3.3-13.6-5.1-19.5c-2-5.9-4.3-10.5-5.1-10.2
	c-0.9,0.3-3.7,6.2-6.1,13.2c-2.5,6.8-5.1,14-6,15.7c-0.8,1.7-1.9,12.6-2.6,24.2c-0.6,11.6-1.7,21.3-2.5,21.5
	c-0.8,0.2-4-4.5-7.1-10.3c-3.2-5.9-9.3-16.6-13.6-23.9c-4.4-7.2-10.8-17-14.5-21.9c-3.6-4.8-7.3-10.3-8.4-12.3c-1-2-1.8-8-1.9-13.5
	c0-9.2,0.6-10.8,7.6-21.8c4.2-6.5,11.7-20.7,16.6-31.4c5-10.7,9.1-20.3,9.1-21.4c-0.1-1.1,0.5-2.6,1.2-3.4c0.6-0.8,2.5-5,4-9.5
	c1.6-4.6,5-16.3,7.7-26.4c2.7-10,5.8-22.5,6.9-27.7c1.1-5.2,3.6-17.7,5.3-27.8c1.9-10,3.4-20.9,3.4-24.2s0.6-7.2,1.4-8.7
	c0.8-1.6,1.7-11.2,2-21.5c0.5-14.2,0.1-18.6-1.4-18.6c-1.1,0-5.3,3.8-9.5,8.4c-4.2,4.7-9.2,11.7-11.2,15.5l-5.9,11
	c-1.2,2.2-4.8,10.2-7.8,17.8c-3.1,7.6-6,13.9-6.7,13.9c-0.7,0.1-2.1-6.2-3.3-13.9c-1.1-7.6-2.8-17.4-3.7-21.8
	c-0.8-4.4-2.2-11.7-3.1-16.3c-0.8-4.6-3.3-13.1-5.5-19c-3.9-10.1-4-11.7-2.8-28.6c0.7-9.8,1.7-17.8,2.1-17.8c0.4,0,2.2-2.9,4-6.3
	c1.8-3.6,3.6-6.3,4-6.3c0.4,0.1,4.3-7.2,8.5-16.2c4.2-8.9,8.9-18.8,10.4-21.9c1.5-3,5.6-14.5,9.3-25.3c3.6-10.9,8.6-28.4,11.3-38.9
	c2.6-10.4,5.8-24.8,7.1-31.7c1.3-7,3.9-24,5.6-37.7c1.7-13.8,3.2-29.2,3.2-34.5c0-6.5-0.6-9.6-2-9.6c-1.1-0.1-4.5,2.6-7.5,5.9
	c-3.1,3.3-8.9,11.4-13,17.9s-9.5,17.2-12.3,23.8c-2.7,6.5-5.5,13-6.4,14.4c-1.4,2.1-1.8,2.1-3.1,0c-0.8-1.4-2.3-8.5-3.3-15.9
	s-2.9-18.4-4.2-24.6c-1.3-6.1-3-14-3.8-17.4c-0.7-3.6-3.8-12.5-6.8-19.9c-3-7.4-6.4-15.4-7.6-17.8c-1.2-2.5-2.6-4.5-3.1-4.4
	C249.3,1322.4,247,1325.4,244.8,1329.1L244.8,1329.1z"/>
<path class="st2" d="M1242,1383.5c0.1,6.9,0.3,9.5,0.7,5.5c0.3-4,0.3-9.6,0-12.7C1242.3,1373.3,1242,1376.4,1242,1383.5z"/>
<path class="st4" d="M572.4,1404.4c-0.4,0.7-9.7,29.8-20.8,64.7c-11.1,35-21.2,67-22.5,71.5c-1.3,4.4-3.4,11.1-4.8,15.1
	c-1.3,3.9-11.5,36-22.7,71.4c-11.2,35.3-22.1,69.6-24.2,76.1c-2.1,6.5-5.1,16.3-6.8,21.8l-3.1,9.9l-32.5,0.1
	c0,41.8,0.5,54.2,1.2,54.4c0.7,0.3,27.5,0.1,59.7-0.4l58.5-0.8l-0.5-52.4c-41.1-0.8-41.3-0.9-40.5-4.4c0.4-2,3.1-13.5,5.9-25.4
	l5.1-21.8c102,0,115,0.4,115.4,2c0.4,1.1,3.1,12.2,5.9,24.7c3,12.5,5,23,4.7,23.4c-0.3,0.4-9.8,0.8-21,0.8h-20.3v52.3h120.4V1735
	c-34.3,0-34.9-0.2-35.5-3.6c-0.4-2-14-51.8-30.1-110.7s-31.7-115.4-34.4-125.4c-2.8-10.1-7.7-27.9-11-39.7
	c-3.3-11.8-7.6-27.5-9.5-34.9c-2-7.4-4.4-14.5-5.3-15.5c-1.2-1.5-6.2-2.1-16.2-2C579.7,1403.3,572.8,1403.9,572.4,1404.4
	L572.4,1404.4z M1019,1405.2c-0.4,1.1-4.1,12.4-8,25.1c-4.1,12.7-9.5,29.8-12.2,38c-2.6,8.3-6.7,21.5-9.2,29.4
	c-2.5,7.8-8.5,27.1-13.4,42.9c-5,15.6-13,41-17.8,56.2c-4.8,15.3-14,44.3-20.4,64.3c-6.3,20.1-14.3,45-17.6,55.2l-6,18.7l-32.5-0.1
	l0.8,54.8c9.2,0,36.1-0.2,65.7-0.4l53.9-0.4v-54c-31.9,0-41.5-0.6-41.8-1.2c-0.3-0.7,1.8-10.5,4.7-21.9c2.9-11.3,5.2-22.2,5.3-24.2
	c0.1-2.5,1.2-3.7,3.7-4c2-0.2,28.1-0.1,58.1,0.4l54.7,0.8l10.9,45.6l1.1,4.4h-42.8l0.8,51.5h120.4l0.8-51.5l-35.4-0.8
	c-14.5-51.7-22.1-79.2-26.3-94.5s-9.1-33.1-10.9-39.7c-1.7-6.5-8.5-31.5-15.1-55.4c-6.5-24.1-13.9-50.5-16.1-58.7
	c-2.2-8.3-6.5-24.1-9.5-35c-3-10.9-6.4-23.4-7.7-27.7c-1.2-4.4-2.9-10.5-3.6-13.6l-1.4-5.5C1023.9,1403.3,1019.5,1403.7,1019,1405.2
	L1019,1405.2z"/>
<path class="st2" d="M1242,1430.3c0,6.5,0.3,9.4,0.7,6.3c0.3-3.1,0.3-8.4,0-11.9C1242.3,1421.2,1242,1423.8,1242,1430.3z"/>
<path class="st1" d="M1033.4,1490.2c-0.4,0.6-2.2,6.1-3.9,12.3c-1.8,6.1-6.8,23.3-11.3,38.1c-4.5,14.8-9.9,32.7-12,39.6
	c-2.1,7-6.6,22.2-10.2,33.8c-3.6,11.5-6.4,21.4-6.4,21.8s18.5,0.8,41.2,0.8s41.2-0.5,41.2-1.2c0.1-0.7-7.8-33.9-17.5-73.8
	c-9.7-39.9-18.2-72.6-19-72.6C1034.8,1489,1033.8,1489.5,1033.4,1490.2L1033.4,1490.2z M585.2,1493.3c-0.5,1.6-3.2,10.4-5.8,19.5
	c-2.8,9.2-7,23.5-9.6,31.8c-2.5,8.2-9.6,31.8-15.6,52.3c-6.1,20.6-11.2,37.8-11.2,38.5s18.5,1.2,41.2,1.2h41.2
	c-1.3-6.7-9.3-39.4-18.7-76.8c-9.3-37.4-17.7-68.3-18.7-68.7C586.9,1490.7,585.7,1491.7,585.2,1493.3L585.2,1493.3z"/>
<path class="st2" d="M1242,1573.9c0.1,7,0.3,9.5,0.7,5.5c0.3-4,0.3-9.6,0-12.7C1242.3,1563.7,1242,1566.9,1242,1573.9z M1242,1620.7
	c0,6.5,0.3,9.4,0.7,6.3c0.3-3.1,0.3-8.4,0-11.9C1242.3,1611.6,1242,1614.2,1242,1620.7z M1242,1764.3c0.1,7,0.3,9.5,0.7,5.5
	c0.3-3.9,0.3-9.6,0-12.7C1242.3,1754.1,1242,1757.3,1242,1764.3z M1242,1811.1c0,6.5,0.3,9.4,0.7,6.3c0.3-3.1,0.3-8.4,0-11.9
	C1242.3,1802.1,1242,1804.6,1242,1811.1z"/>
<image style="display:none;overflow:visible;opacity:0.32;" width="344" height="500" xlink:href="A00AE726.jpg"  transform="matrix(4.4924 0 0 4.2597 5.0008 176.4219)">
</image>
<path class="st0" d="M432.1,300.6c-3.3-6.8-7.6-19.2-11.6-31.8c-4-12.6-12.4-38.8-18.8-58.1c-6.4-19.5-12.1-36-12.7-37
	c-0.7-0.9-2,0.3-3,2.8h0c-1.1,2.3-4.7,12.6-8.1,22.7c-3.5,10.2-8.4,24.9-10.8,32.7c-2.5,7.7-5.4,16.8-6.3,20.3
	c-1,3.4-5,15.3-8.9,26.5c-3.9,11.1-8,20.8-9.4,21.6c-1.2,0.8-31.3,1.2-66.8,0.9c-35.4-0.2-65.1,0-65.6,0.4
	c-0.7,0.4,5.8,6.1,14.3,12.4c8.6,6.5,19.5,14.4,24.2,17.7c4.8,3.3,10,6.9,11.4,8.1c1.5,1.2,8.3,6.2,15.1,11.2
	c6.8,5,16.3,11.7,21.1,14.9c4.8,3.3,11.8,8.6,15.4,11.8l6.7,5.8c-5.2,15.1-10.9,32.5-16,48.6c-5.2,16-10,30.7-10.8,32.6
	c-0.9,2-4.3,12.9-7.7,24.3c-3.4,11.3-6.2,21.5-6.2,22.5c0,1,2.5-0.1,5.7-2.5c3.2-2.3,10.6-7.7,16.6-11.9
	c5.9-4.2,17.1-12.1,24.7-17.5c7.6-5.4,15-11,16.4-12.4c1.4-1.4,7.8-6.1,14.1-10.3c6.3-4.2,15.6-11.1,20.7-15.3
	c5.1-4.2,10.5-7.6,11.9-7.6s6.1,2.9,10.1,6.4s9,7.2,11,8.1c2,1,4,2.3,4.4,3c0.4,0.6,5.3,4.3,10.6,8.3s15.6,11.3,22.9,16.3
	s14.8,10.5,16.7,12.2c2,1.9,7,5.5,11.4,8.3c4.4,2.8,11.3,7.6,15.4,10.9c6.1,4.8,7.5,5.4,7.5,2.9c0-1.7-4-15.4-8.8-30.4
	c-4.8-15.1-12.8-39.7-17.6-54.7c-4.8-15.1-10-30.7-11.4-34.9l-2.6-7.5c14.3-10.5,34.8-25.3,54.6-39.6c19.8-14.4,40.4-29.4,45.7-33.4
	l9.6-7.3c-12.1-0.7-42.6-1.1-75.4-1.3L432.1,300.6z"/>
<path class="st0" d="M1232.9,300.6c-3.3-6.8-7.6-19.2-11.6-31.8c-4-12.6-12.4-38.8-18.8-58.1c-6.4-19.5-12.1-36-12.7-37
	c-0.7-0.9-2,0.3-3,2.8h0c-1.1,2.3-4.7,12.6-8.1,22.7c-3.5,10.2-8.4,24.9-10.8,32.7c-2.5,7.7-5.4,16.8-6.3,20.3
	c-1,3.4-5,15.3-8.9,26.5c-3.9,11.1-8,20.8-9.4,21.6c-1.2,0.8-31.3,1.2-66.8,0.9c-35.4-0.2-65.1,0-65.6,0.4
	c-0.7,0.4,5.8,6.1,14.3,12.4c8.6,6.5,19.5,14.4,24.2,17.7c4.8,3.3,10,6.9,11.4,8.1c1.5,1.2,8.3,6.2,15.1,11.2
	c6.8,5,16.3,11.7,21.1,14.9c4.8,3.3,11.8,8.6,15.4,11.8l6.7,5.8c-5.2,15.1-10.9,32.5-16,48.6c-5.2,16-10,30.7-10.8,32.6
	c-0.9,2-4.3,12.9-7.7,24.3c-3.4,11.3-6.2,21.5-6.2,22.5c0,1,2.5-0.1,5.7-2.5c3.2-2.3,10.6-7.7,16.6-11.9
	c5.9-4.2,17.1-12.1,24.7-17.5c7.6-5.4,15-11,16.4-12.4c1.4-1.4,7.8-6.1,14.1-10.3c6.3-4.2,15.6-11.1,20.7-15.3
	c5.1-4.2,10.5-7.6,11.9-7.6c1.4,0,6.1,2.9,10.1,6.4s9,7.2,11,8.1c2,1,4,2.3,4.4,3c0.4,0.6,5.3,4.3,10.6,8.3
	c5.3,4,15.6,11.3,22.9,16.3s14.8,10.5,16.7,12.2c2,1.9,7,5.5,11.4,8.3c4.4,2.8,11.3,7.6,15.4,10.9c6.1,4.8,7.5,5.4,7.5,2.9
	c0-1.7-4-15.4-8.8-30.4c-4.8-15.1-12.8-39.7-17.6-54.7c-4.8-15.1-10-30.7-11.4-34.9l-2.6-7.5c14.3-10.5,34.8-25.3,54.6-39.6
	c19.8-14.4,40.4-29.4,45.7-33.4l9.6-7.3c-12.1-0.7-42.6-1.1-75.4-1.3L1232.9,300.6z"/>
<path class="st1" d="M881.7,211.1c-3-6.1-6.8-17.2-10.4-28.6c-3.6-11.3-11.2-34.9-16.9-52.3c-5.7-17.5-10.9-32.4-11.4-33.3
	c-0.6-0.8-1.8,0.3-2.7,2.5h0c-1,2.1-4.3,11.3-7.3,20.4c-3.2,9.2-7.5,22.4-9.7,29.4c-2.3,6.9-4.9,15.1-5.6,18.2
	c-0.9,3.1-4.5,13.8-8,23.9c-3.5,10-7.2,18.7-8.4,19.4c-1.1,0.7-28.1,1.1-60.1,0.8c-31.9-0.2-58.5,0-59,0.4
	c-0.6,0.4,5.2,5.4,12.9,11.2c7.7,5.8,17.5,13,21.8,15.9c4.4,3,9,6.2,10.3,7.3c1.4,1.1,7.4,5.5,13.6,10.1c6.1,4.5,14.7,10.5,19,13.4
	c4.4,3,10.6,7.7,13.9,10.6l6,5.2c-4.7,13.6-9.8,29.2-14.4,43.7c-4.7,14.4-9,27.6-9.7,29.3c-0.8,1.8-3.9,11.6-6.9,21.9
	c-3.1,10.2-5.5,19.3-5.5,20.2c0,0.9,2.3-0.1,5.1-2.3c2.9-2.1,9.5-6.9,15-10.7c5.3-3.8,15.3-10.9,22.2-15.7
	c6.8-4.9,13.5-9.9,14.8-11.2c1.3-1.3,7-5.4,12.7-9.3c5.6-3.8,14.1-10,18.6-13.8c4.6-3.8,9.4-6.8,10.7-6.8c1.3,0,5.4,2.6,9.1,5.7
	c3.7,3.2,8.1,6.4,9.9,7.3c1.8,0.9,3.6,2.1,4,2.7c0.4,0.5,4.8,3.9,9.5,7.4c4.8,3.6,14.1,10.2,20.6,14.7s13.3,9.4,15.1,11
	c1.8,1.7,6.3,5,10.3,7.4c4,2.5,10.2,6.8,13.9,9.8c5.4,4.4,6.7,4.9,6.7,2.6c0-1.5-3.6-13.9-7.9-27.3c-4.4-13.6-11.5-35.7-15.8-49.2
	c-4.4-13.6-9-27.6-10.3-31.4l-2.4-6.7c12.9-9.4,31.3-22.8,49.1-35.6c17.8-13,36.3-26.4,41.1-30l8.6-6.5c-10.9-0.6-38.3-1-67.8-1.2
	L881.7,211.1z"/>
</svg>
