<svg height="339.116499" viewBox="0 0 947.45974 1090.1862" width="294.883912" xmlns="http://www.w3.org/2000/svg"><g transform="matrix(.82007425166 0 0 .82007425166 311.55380710949 540.13102)"><path d="m118.61914-658.63672c-11.75205 35.35706-25.642389 61.69729-39.99414 86.0918-15.660871-23.43964-31.132072-47.44911-43.607422-80.44531l-143.564458 27.36523c-33.63118 135.69076-150.46469 232.34194-271.50585 269.95703v235.16602h52.67578c17.84389 0 32.20898 14.2502 32.20898 31.951169 0 17.700962-14.36509 31.951172-32.20898 31.951172h-52.67774v247.535159c-.1769 176.32301 141.85732 260.02241 192.11719 286.45898l385.89453 193.34375 385.89453-193.34375c50.25987-26.43657 192.29411-110.13597 192.11719-286.45898v-247.535159h-52.67773c-17.8439 0-32.20899-14.25021-32.20899-31.951172 0-17.700969 14.36509-31.951169 32.20899-31.951169h52.67578v-235.16602c-121.04115-37.61509-237.87468-134.26627-271.50586-269.95703l-143.56446-27.36523c-12.47535 32.9962-27.94655 57.00567-43.60742 80.44531-14.35175-24.39451-28.24209-50.73474-39.99414-86.0918h-79.33789z" fill="#ebc17d"/><path d="m132.61914-640.52734c-14.05548 42.9479-31.85107 77.70156-53.99414 106.09179-20.408718-27.41101-39.784988-63.97813-56.996094-96.18554l-113.74414 21.88867c-12.178406 50.02018-41.190396 103.83421-90.585936 155.20312-36.27292 37.72205-96.79783 84.84775-177.35156 111.86133v199.65625h30.41211c30.99317 0 55.94335 23.4141 55.94335 52.500001 0 29.085902-24.95018 52.501953-55.94335 52.501953h-30.41211v227.945316c1.06296 164.16408 138.93649 246.35448 178.11523 266.45898l379.89453 189.34375 379.89453-189.34375c39.17875-20.1045 177.05227-102.2949 178.11524-266.45898v-227.945316h-30.41211c-30.99317 0-55.94336-23.416051-55.94336-52.501953 0-29.085901 24.95019-52.500001 55.94336-52.500001h30.41211v-199.65625c-80.55374-27.01358-141.07865-74.13928-177.35157-111.86133-49.39554-51.36891-78.40753-105.18294-90.58593-155.20312l-113.74414-21.88867c-17.21111 32.20741-36.58738 68.77453-56.9961 96.18554-22.14306-28.39023-39.93865-63.14389-53.99414-106.09179h-65.33789z" fill="#fff"/><path d="m-194.51367-397.63477c-50.33827 44.53456-92.4113 64.69188-132.30274 80.84961v141.00196c49.592 2.06845 88.85547 40.04894 88.85547 86.927731v.609375c0 46.878806-39.26347 84.861251-88.85547 86.9296878v178.4179662c.0298 120.39761 66.04128 199.00657 155.80079 245.8711l368.97265 185.62109 368.97266-185.62109c89.7595-46.86453 155.77095-125.47349 155.80078-245.8711v-178.4179662c-49.592-2.0684368-88.85547-40.0508818-88.85547-86.9296878v-.609375c0-46.878791 39.26348-84.859281 88.85547-86.927731v-141.00196c-39.89144-16.15773-81.96447-36.31505-132.30274-80.84961v593.00977c-1.06296 99.65307-45.8193 140.78142-94.12695 169.40625l-298.34375 161.95703-298.34375-161.95703c-48.30765-28.62483-93.06399-69.75318-94.12695-169.40625z" fill="#132361"/></g><g transform="matrix(.60552388 0 0 .60552388 311.6261 540.13102)"><path d="m4.0017699-801.15547-91.4907929 16.48464c-28.938677 84.97713-74.757067 143.23959-119.513617 194.60707v18.37327c78.63437-37.53528 195.539846-67.2858 315.51203-82.1666-45.759695-44.13386-78.864449-94.02064-104.5076201-147.29838z" fill="#132361"/><path d="m531.95453-801.15547 91.49079 16.48464c28.93868 84.97713 74.75707 143.23959 119.51362 194.60707v18.37327c-78.63437-37.53528-195.53985-67.2858-315.51203-82.1666 45.7597-44.13386 78.86445-94.02064 104.50762-147.29838z" fill="#132361"/><path d="m156.4082-606.76953c-17.45168 49.8439-43.86997 86.82243-75.808591 123.92383 39.507631-4.88559 79.401711-7.62909 117.357421-7.68164 37.95571.0525 77.84979 2.79605 117.35742 7.68164-31.93862-37.1014-58.3569-74.07993-75.80859-123.92383z" fill="#ec1d25" transform="matrix(1.3543219 0 0 1.3543219 -.119389 0)"/></g><g fill="#ec1d25" transform="matrix(.60552388 0 0 .60552388 311.27200174545 540.13102)"><path d="m218.43873-536.19489c-66.33283.5472-237.658135 25.25967-298.752886 50.67294-38.103934 15.84989-62.009924 40.0358-61.429344 77.54758v658.03794c-.0806 41.46213-2.42294 88.25646 47.790004 120.02747l312.392226 180.09155v-463.925151l-128.801769 91.502821v155.03027l-85.6766067-51.28821c-15.4784553-10.32861-18.5799373-22.18315-18.6526743-44.87719v-575.82668c-.704537-17.07047 1.781553-32.88703 26.229341-40.21461l78.09994-19.23308v336.870263l128.801769-91.502823z"/><path d="m235.40039-395.91406v802.15625l75.24127-43.37579c15.29471-7.71708 20.16655-21.2449 19.86225-31.48676v-324.8249525l65.41015 46.3945315c7.54435 5.950705 11.64637 11.035857 11.625 19.929687v234.126954l58.52344-33.73828c37.07608-23.45898 35.34662-58.01225 35.28711-88.62696v-145.23437c.26071-13.321523-3.77613-23.090142-12.48242-29.5078125l-54.22266-39.1621095c15.84443-11.117496 33.93098-18.738767 48.31055-36.919922 6.53358-8.260883 18.94424-30.480898 18.39453-50.484376v-184.57031c.42869-27.69783-17.22236-45.55657-45.35742-57.25977-45.11096-18.76457-171.61316-37.01197-220.5918-37.41601zm95.10352 101.56054 57.66797 14.20118c18.05168 5.41051 19.88739 17.08891 19.36718 29.69336v150.904292c.23532 9.907881-6.63192 15.511835-11.625 18.650391l-65.41015 46.394531z" transform="matrix(1.3543219 0 0 1.3543219 -.119389 0)"/></g></svg>